<mxfile host="app.diagrams.net" agent="Mozilla/5.0 (Macintosh; Intel Mac OS X 10_15_7) AppleWebKit/537.36 (KHTML, like Gecko) Chrome/130.0.0.0 Safari/537.36" version="24.8.4">
  <diagram name="Page-1" id="5Z78mYtxK4g2spvNUS5l">
    <mxGraphModel dx="867" dy="581" grid="1" gridSize="10" guides="1" tooltips="1" connect="1" arrows="1" fold="1" page="1" pageScale="1" pageWidth="827" pageHeight="1169" math="0" shadow="0">
      <root>
        <mxCell id="0" />
        <mxCell id="1" parent="0" />
        <mxCell id="Fw73sAZrg3cBjoxB2AiI-2" value="Source Code" style="rounded=1;whiteSpace=wrap;html=1;fillColor=#d5e8d4;strokeColor=#82b366;" vertex="1" parent="1">
          <mxGeometry x="70" y="50" width="120" height="60" as="geometry" />
        </mxCell>
        <mxCell id="Fw73sAZrg3cBjoxB2AiI-3" value="You are a unit test generator with meaningful assertions for java program. You must use jdk17 and and junit 5 and follow the instructions.&lt;br&gt;Cover as many branches as possible in the (Branch Coverage)&lt;br&gt;Write meaningful assertions.&lt;div&gt;Output test code in a java code cell.&amp;nbsp;&lt;div&gt;&lt;br&gt;&lt;/div&gt;&lt;/div&gt;" style="shape=callout;whiteSpace=wrap;html=1;perimeter=calloutPerimeter;direction=south;align=left;" vertex="1" parent="1">
          <mxGeometry x="380" y="10" width="250" height="130" as="geometry" />
        </mxCell>
        <mxCell id="Fw73sAZrg3cBjoxB2AiI-4" value="Initialization" style="ellipse;whiteSpace=wrap;html=1;fillColor=#ffe6cc;strokeColor=#d79b00;" vertex="1" parent="1">
          <mxGeometry x="280" y="50" width="110" height="50" as="geometry" />
        </mxCell>
        <mxCell id="Fw73sAZrg3cBjoxB2AiI-5" value="" style="endArrow=classic;html=1;rounded=0;" edge="1" parent="1" source="Fw73sAZrg3cBjoxB2AiI-6">
          <mxGeometry width="50" height="50" relative="1" as="geometry">
            <mxPoint x="120" y="110" as="sourcePoint" />
            <mxPoint x="120" y="190" as="targetPoint" />
          </mxGeometry>
        </mxCell>
        <mxCell id="Fw73sAZrg3cBjoxB2AiI-13" value="" style="edgeStyle=orthogonalEdgeStyle;rounded=0;orthogonalLoop=1;jettySize=auto;html=1;" edge="1" parent="1" source="Fw73sAZrg3cBjoxB2AiI-6" target="Fw73sAZrg3cBjoxB2AiI-11">
          <mxGeometry relative="1" as="geometry" />
        </mxCell>
        <mxCell id="Fw73sAZrg3cBjoxB2AiI-8" value="&lt;b&gt;Preprocessing&lt;/b&gt;" style="text;html=1;align=center;verticalAlign=middle;resizable=0;points=[];autosize=1;strokeColor=none;fillColor=none;" vertex="1" parent="1">
          <mxGeometry x="15" y="140" width="110" height="30" as="geometry" />
        </mxCell>
        <mxCell id="Fw73sAZrg3cBjoxB2AiI-9" value="" style="endArrow=classic;html=1;rounded=0;" edge="1" parent="1">
          <mxGeometry width="50" height="50" relative="1" as="geometry">
            <mxPoint x="330" y="180.05" as="sourcePoint" />
            <mxPoint x="160" y="179.55" as="targetPoint" />
          </mxGeometry>
        </mxCell>
        <mxCell id="Fw73sAZrg3cBjoxB2AiI-16" value="" style="edgeStyle=orthogonalEdgeStyle;rounded=0;orthogonalLoop=1;jettySize=auto;html=1;" edge="1" parent="1" source="Fw73sAZrg3cBjoxB2AiI-11" target="Fw73sAZrg3cBjoxB2AiI-15">
          <mxGeometry relative="1" as="geometry" />
        </mxCell>
        <mxCell id="Fw73sAZrg3cBjoxB2AiI-11" value="Generated Unit test case Ti" style="text;html=1;align=center;verticalAlign=middle;whiteSpace=wrap;rounded=0;" vertex="1" parent="1">
          <mxGeometry x="80" y="300" width="120" height="30" as="geometry" />
        </mxCell>
        <mxCell id="Fw73sAZrg3cBjoxB2AiI-19" value="" style="edgeStyle=orthogonalEdgeStyle;rounded=0;orthogonalLoop=1;jettySize=auto;html=1;" edge="1" parent="1" source="Fw73sAZrg3cBjoxB2AiI-15" target="Fw73sAZrg3cBjoxB2AiI-17">
          <mxGeometry relative="1" as="geometry" />
        </mxCell>
        <mxCell id="Fw73sAZrg3cBjoxB2AiI-15" value="Compilation &amp;amp; Execution" style="shape=process;whiteSpace=wrap;html=1;backgroundOutline=1;" vertex="1" parent="1">
          <mxGeometry x="280" y="285" width="120" height="60" as="geometry" />
        </mxCell>
        <mxCell id="Fw73sAZrg3cBjoxB2AiI-22" value="" style="edgeStyle=orthogonalEdgeStyle;rounded=0;orthogonalLoop=1;jettySize=auto;html=1;" edge="1" parent="1" source="Fw73sAZrg3cBjoxB2AiI-17" target="Fw73sAZrg3cBjoxB2AiI-20">
          <mxGeometry relative="1" as="geometry" />
        </mxCell>
        <mxCell id="Fw73sAZrg3cBjoxB2AiI-17" value="" style="shape=image;verticalLabelPosition=bottom;labelBackgroundColor=default;verticalAlign=top;aspect=fixed;imageAspect=0;image=data:image/png,iVBORw0KGgoAAAANSUhEUgAAALgAAADECAYAAAAs0+t9AAAMTGlDQ1BJQ0MgUHJvZmlsZQAASImVVwdYU8kWnltSIQQIhCIl9CaISAkgJYQWQHoRRCUkAUKJMSGo2NFFBdcuIljRVRDFtgKy2FBXXVkUu2tZLCisrIsFu/ImBNBlX/ne5JuZP/+c+eecc+eWAYDewZdKc1FNAPIk+bLYkADWxOQUFqkLUOFPD9gDK75ALuVER0cAWIb6v5c3NwCi7K86KrX+Of5fi5ZQJBcAgERDnC6UC/Ig/hEAvFkgleUDQJRC3mJGvlSJ10GsI4MOQlytxJkq3KzE6Sp8ecAmPpYL8WMAyOp8viwTAI1eyLMKBJlQhw6jBc4SoVgCsT/Evnl504QQL4DYFtrANelKfXb6NzqZf9NMH9bk8zOHsSqWgUIOFMulufxZ/2c6/nfJy1UMrWEDq3qWLDRWGTPM2+OcaeFKrA7xO0l6ZBTE2gCguFg4YK/EzCxFaILKHrUVyLkwZ4AJ8Xh5bhxvkI8V8gPDITaCOEOSGxkxaFOUIQ5W2sD8oeXifF48xPoQV4vkQXGDNidl02KH1r2RIeNyBvkuvmzAB6X+F0VOAkelj2lniXiD+phTYVZ8EsRUiAMLxImREGtAHCnPiQsftEktzOJGDtnIFLHKWCwhlokkIQEqfawsQxYcO2i/J08+FDt2MkvMixzEV/Kz4kNVucIeC/gD/sNYsF6RhJMwpCOST4wYikUoCgxSxY6TRZKEOBWP60vzA2JVc3F7aW70oD0eIMoNUfLmEMfLC+KG5hbkw82p0seLpfnR8So/8Ypsfli0yh/8AIgAXBAIWEABazqYBrKBuK2noQf+U40EAz6QgUwgAo6DzNCMpIERCWzjQCH4EyIRkA/PCxgYFYECyH8ewSo58TCnah1BxuCYUiUHPIE4D4SDXPhfMaAkGfYgETyGjPgfHvFhFcAYcmFVjv97foj9ynAgEzHIKIZWZNGHLIlBxEBiKDGYaIcb4r64Nx4BW39YXXA27jkUx1d7whNCO+Eh4Tqhg3B7qrhINsLLCaAD6gcP5if92/zg1lDTDQ/AfaA6VMaZuCFwxF3hOhzcD67sBlnuoN/KrLBGaP8tgm+u0KAdxZmCUvQo/hTbkTM17DXchlWUuf42Pypf04fzzR0eGbk+95vsC2EfPtISW4odxs5hp7ALWDPWAFjYCawRa8WOKfHwjns8sOOGVosd8CcH6ozcM1+vrDKTcuda527nT6qxfNHMfOXNyJ0mnSUTZ2blszjwjSFi8SQCp9EsF2cXVwCU7x/V4+1VzMB7BWG2fuUW/Q6Az4n+/v6fvnJhJwA46AEfCUe/crZs+GpRA+D8UYFCVqDicGVDgE8OOrz7DIAJsAC2MB4X4A68gT8IAmEgCsSDZDAFep8F97kMzABzwEJQDErBKrAeVICtYAeoBvvAIdAAmsEp8DO4CC6D6+AO3D2d4BnoBW/ARwRBSAgNYSAGiClihTggLggb8UWCkAgkFklG0pBMRIIokDnIIqQUWYNUINuRGuQgchQ5hVxA2pHbyAOkG3mJfEAxVB3VQY1Ra3QMykY5aDgaj05GM9HpaCG6GF2BlqNV6F60Hj2FXkSvox3oM7QPA5gaxsTMMEeMjXGxKCwFy8Bk2DysBCvDqrA6rAle56tYB9aDvceJOANn4Y5wB4fiCbgAn47Pw5fjFXg1Xo+fwa/iD/Be/AuBRjAiOBC8CDzCREImYQahmFBG2EU4QjgL76VOwhsikcgk2hA94L2YTMwmziYuJ24m7ieeJLYTHxH7SCSSAcmB5EOKIvFJ+aRi0kbSXtIJ0hVSJ+kdWY1sSnYhB5NTyBJyEbmMvId8nHyF/JT8kaJJsaJ4UaIoQsosykrKTkoT5RKlk/KRqkW1ofpQ46nZ1IXUcmod9Sz1LvWVmpqauZqnWoyaWG2BWrnaAbXzag/U3qtrq9urc9VT1RXqK9R3q59Uv63+ikajWdP8aSm0fNoKWg3tNO0+7Z0GQ8NJg6ch1JivUalRr3FF4zmdQreic+hT6IX0Mvph+iV6jyZF01qTq8nXnKdZqXlU86ZmnxZDa6xWlFae1nKtPVoXtLq0SdrW2kHaQu3F2ju0T2s/YmAMCwaXIWAsYuxknGV06hB1bHR4Otk6pTr7dNp0enW1dV11E3Vn6lbqHtPtYGJMayaPmctcyTzEvMH8oGesx9ET6S3Tq9O7ovdWf5S+v75Iv0R/v/51/Q8GLIMggxyD1QYNBvcMcUN7wxjDGYZbDM8a9ozSGeU9SjCqZNShUb8ZoUb2RrFGs412GLUa9RmbGIcYS403Gp827jFhmvibZJusMzlu0m3KMPU1FZuuMz1h+gdLl8Vh5bLKWWdYvWZGZqFmCrPtZm1mH81tzBPMi8z3m9+zoFqwLTIs1lm0WPRamlpOsJxjWWv5mxXFim2VZbXB6pzVW2sb6yTrJdYN1l02+jY8m0KbWpu7tjRbP9vptlW21+yIdmy7HLvNdpftUXs3+yz7SvtLDqiDu4PYYbND+2jCaM/RktFVo286qjtyHAscax0fODGdIpyKnBqcno+xHJMyZvWYc2O+OLs55zrvdL4zVnts2NiisU1jX7rYuwhcKl2ujaONCx43f1zjuBeuDq4i1y2ut9wYbhPclri1uH1293CXude5d3tYeqR5bPK4ydZhR7OXs897EjwDPOd7Nnu+93L3yvc65PWXt6N3jvce767xNuNF43eOf+Rj7sP32e7T4cvyTfPd5tvhZ+bH96vye+hv4S/03+X/lGPHyebs5TwPcA6QBRwJeMv14s7lngzEAkMCSwLbgrSDEoIqgu4HmwdnBtcG94a4hcwOORlKCA0PXR16k2fME/BqeL1hHmFzw86Eq4fHhVeEP4ywj5BFNE1AJ4RNWDvhbqRVpCSyIQpE8aLWRt2LtomeHv1TDDEmOqYy5kns2Ng5sefiGHFT4/bEvYkPiF8ZfyfBNkGR0JJIT0xNrEl8mxSYtCapY+KYiXMnXkw2TBYnN6aQUhJTdqX0TQqatH5SZ6pbanHqjck2k2dOvjDFcErulGNT6VP5Uw+nEdKS0vakfeJH8av4fem89E3pvQKuYIPgmdBfuE7YLfIRrRE9zfDJWJPRlemTuTazO8svqyyrR8wVV4hfZIdmb81+mxOVszunPzcpd38eOS8t76hEW5IjOTPNZNrMae1SB2mxtGO61/T103tl4bJdckQ+Wd6YrwM/9FsVtorvFA8KfAsqC97NSJxxeKbWTMnM1ln2s5bNeloYXPjDbHy2YHbLHLM5C+c8mMuZu30eMi99Xst8i/mL53cuCFlQvZC6MGfhr0XORWuKXi9KWtS02HjxgsWPvgv5rrZYo1hWfHOJ95KtS/Gl4qVty8Yt27jsS4mw5JdS59Ky0k/LBct/+X7s9+Xf96/IWNG20n3lllXEVZJVN1b7ra5eo7WmcM2jtRPW1q9jrStZ93r91PUXylzLtm6gblBs6CiPKG/caLlx1cZPFVkV1ysDKvdvMtq0bNPbzcLNV7b4b6nbary1dOuHbeJtt7aHbK+vsq4q20HcUbDjyc7Ened+YP9Qs8twV+muz7sluzuqY6vP1HjU1Owx2rOyFq1V1HbvTd17eV/gvsY6x7rt+5n7Sw+AA4oDfxxMO3jjUPihlsPsw3U/Wv246QjjSEk9Uj+rvrchq6GjMbmx/WjY0ZYm76YjPzn9tLvZrLnymO6xlcepxxcf7z9ReKLvpPRkz6nMU49aprbcOT3x9LUzMWfazoafPf9z8M+nz3HOnTjvc775gteFo7+wf2m46H6xvtWt9civbr8eaXNvq7/kcanxsuflpvbx7cev+F05dTXw6s/XeNcuXo+83n4j4catm6k3O24Jb3Xdzr394reC3z7eWXCXcLfknua9svtG96t+t/t9f4d7x7EHgQ9aH8Y9vPNI8OjZY/njT52Ln9CelD01fVrT5dLV3B3cffmPSX90PpM++9hT/KfWn5ue2z7/8S//v1p7J/Z2vpC96H+5/JXBq92vXV+39EX33X+T9+bj25J3Bu+q37Pfn/uQ9OHpxxmfSJ/KP9t9bvoS/uVuf15/v5Qv4w98CmBAebTJAODlbgBoyQAw4LmROkl1PhwoiOpMO4DAf8KqM+RAcQegDn7Tx/TAr5ubABzYCYA11KenAhBNAyDeE6Djxg3XobPcwLlTWYjwbLAt6HN6Xjr4N0V1Jv3G75E9UKq6gpH9vwAQLoMhXqVY6wAAAIplWElmTU0AKgAAAAgABAEaAAUAAAABAAAAPgEbAAUAAAABAAAARgEoAAMAAAABAAIAAIdpAAQAAAABAAAATgAAAAAAAACQAAAAAQAAAJAAAAABAAOShgAHAAAAEgAAAHigAgAEAAAAAQAAALigAwAEAAAAAQAAAMQAAAAAQVNDSUkAAABTY3JlZW5zaG9022YXMgAAAAlwSFlzAAAWJQAAFiUBSVIk8AAAAdZpVFh0WE1MOmNvbS5hZG9iZS54bXAAAAAAADx4OnhtcG1ldGEgeG1sbnM6eD0iYWRvYmU6bnM6bWV0YS8iIHg6eG1wdGs9IlhNUCBDb3JlIDYuMC4wIj4KICAgPHJkZjpSREYgeG1sbnM6cmRmPSJodHRwOi8vd3d3LnczLm9yZy8xOTk5LzAyLzIyLXJkZi1zeW50YXgtbnMjIj4KICAgICAgPHJkZjpEZXNjcmlwdGlvbiByZGY6YWJvdXQ9IiIKICAgICAgICAgICAgeG1sbnM6ZXhpZj0iaHR0cDovL25zLmFkb2JlLmNvbS9leGlmLzEuMC8iPgogICAgICAgICA8ZXhpZjpQaXhlbFlEaW1lbnNpb24+MTk2PC9leGlmOlBpeGVsWURpbWVuc2lvbj4KICAgICAgICAgPGV4aWY6UGl4ZWxYRGltZW5zaW9uPjE4NDwvZXhpZjpQaXhlbFhEaW1lbnNpb24+CiAgICAgICAgIDxleGlmOlVzZXJDb21tZW50PlNjcmVlbnNob3Q8L2V4aWY6VXNlckNvbW1lbnQ+CiAgICAgIDwvcmRmOkRlc2NyaXB0aW9uPgogICA8L3JkZjpSREY+CjwveDp4bXBtZXRhPgo4k1j5AAAAHGlET1QAAAACAAAAAAAAAGIAAAAoAAAAYgAAAGIAAEgjl3RJrAAAQABJREFUeAHsnQeAXVW1/r/b5k7JpPeQTkILxABKUUCaXUF8iPIEsSAdAlIEpIQWJHQQBBRUUNA/PvvDgkpvgUAgBEgPqaRNkml3bv3/vn3uJRMMBoGXGXB2cueee8oua39r7bXWXnufWOvSl0vqSl0UeJ9SINYF8Pdpz3Y1K1CgC+BdQHhfU6AL4O/r7u1qXBfAuzDwvqZAF8Df193b1bgugHdh4H1NgU4N8FggfUlFDvxx8lcMx2aJgxK/EkUpvhlHZ7hcfj5ksok/JcXJL16+whMUUuQTcyn8jJeiQnymK713KNCpAR43igPEIkDH+B3gBdaKsVgEeqMPEEafTRPet2wOlqEk3+esQn4RUwVG4mJ03neFGzZdUNfZTkeBTg3wCNzIUMAcQAraEhVRbuAb5PECQM9vDLxNoXkzuLSkjpeKkQwvM5bLL5bL2dBzm8low41dR52AAp0a4AZdCWQXALLBzB8AHg/qQiTdy/I0hp6ykWStgDD69rObVS2chxmlhKrisgB2GDEo09+VZLWlK713KNCpAZ4oFqBkUcVETPkyyCPQoROXAR0vJgFgRXc24Q3ACggr3xFz+GqUDNjKtcopM0meESEeGAp8B2DHixFrVJ54fQApP9b11bkp0KkBbgXBCYypZOkdTyjBcbFUCJI9loypUMAY5LZ43BAElDGDvfg6fMtny+fDLc4sOgiSmkN+xwO+AXMqKbIsqyo+6VEEJsOS9VMbM1OUTdffzkuBTg3wHIAu8VG+pOoYkjqPRDc4YwVl4znl0L+rE1WK5wBoIq58Pg/QeQZdumyOchx5YUoVBij3RRniG3oGTnBZbbmsUql00PWTBfIJzxeVh7OsqSQL7UeLDY93HXVOCnRqgMdLgBWdIJFIqBDAiy7d2mSfnZRrVRDnsSokeor7MBATMIGlcllnNi8UrWLYeLQo97XKx2LfN0Ryme+8SvlWxetqVaytViZfVDKeDG5I31NRw9vr452zS7tq1Z4CnRrgVlEwMZGssYDpeDanv9z+E2VmzVPv1py6I9GTOMLzvseSFjDH0aG5O2DXak1IqBixNzrLfQl8+7mIKZJqLSS1tnuNDjjlWKWGDlIWxrKyEjeTmR94psvIjEj6XvnbqQFeNDCNQrQCa8OpZqlt9So1L1uilQ88pDV//ZsGJZGuJUOc61ZPkMxZnsoAymU8mk1Wqa2YVwpwVgPmPNK8JplUHepHDxgnxbMp8s/DHM2MGMu79dWBd96mWLpK+aCYx15XSwqBSezRCbwR+ri9U6XCTxEzWOp7hGDQ8CccbuzN2Sgf3xjd/vpokbJ9Yaaifr5UycfflVQpv5JXpQ4+X7k/MGXlocoN4Woll4h5QymVgijRh/ZWudnOL4/wcIomvaK2lLB5wn30gN2slXqEGzvBn04O8BJaiKkLcVEtqrLWr5G4yZyKDau09LwrpAWzVE0PFDkf5x7UdcAtrUzXaqdzz1SiT2/FqtIq5VBBMlk+GRVgksa587XwHw8pvWaF+oFwd9N60NR770+qxynfUrK6RgX0fBeeyNOx9LD1cOvgoRPLgAlAosxKx/rbakwwTLno28I95c6mllGeMFTlGd+0qXzc9gLXKvc5rwrYDCo/F745rNzj006+t5Jn+/vCxfDHdzgZqP4bCRM/47zMWJFrNirT5Ras5/HtetnG8ROFGH3C6QSCIgHALYgiN6vz7vjUqQFu8gSAQ9Uc0qMIMVMYm225dapN5TT/9MtVemG6apG0CYht+rdC7ZxF3oH7atg3DlepV088LVKVz5n61r2TgLQFoK9t1tq77tHCB+5XP7SRdXTc1sefqupP7BckeKGQ5YF4MDjdsxHAKSTqZ1fPh6HTK+cMFs+yGl2W4AbM66AMz0UMkrSr5l/k42yD9A4F+NcGoPnY5VSAGCrhE+VUecRlO208ZxBJZp/3866EbzM4fX/lWYP3jSNHaA93e2DzfWbWgiU4P/y8JXhgE7e/k6RODXCTyeAwMEsAvBVJi/DGmGwDdOs0/ZvnqNeyxarhpqRv494WPjlVaegl56tqp+2VSaa5llASIzV0Jm7ARtyM3cgznm/DaG3Wwik3qvmZp9UMh0y46golth6D/g1T0IWMIQHglsgGeAU0ZPYmKQJMuMjNBkNoAycs9wKf0bBKbMubZBJO+/4IhFEe7fOKJGwFpLTM4PSnnCGH4Ye/4+V5ggBtbvB35Xr5dsppz4xRLi473BfygL54rUIruOB/oX4u0f8t1Tnf/plK3h353akBbo+HCRfoCtCyKeR0Nq+qqoIKq5bqxW+dqX6t65QGjCZ3FoRnkCqt3fppzI3fU7z3AHQbLgLMYhxpbFdiWerUZJHIjALJWEbZabP00JkXkH9Sn7znDhVqe6iA0p5CT7eUioNKA7yQwJj1WEGvGwLufHdoJYXDgIgNNxjcGwBukPDhRoPD5zeVj/NzGRUd3r99r3V7n3cK0p28KtK0cj66GtWrwgQb++6dQZSJaebkZ9tS0XGYKQ7lULNyg3zdn6j9fgJD/vWGR8/5ZpcT1blyzvd2bOrUAK/Q0PEnJl6xMhwWm9Q27QW9ct4kDQG8iTKC6BetQQlfO368dr3wbBWqegCKJKACnOkixmZBsbaiUomUqjAo49XkmWtSYckK/e+5F2v02G217XdOYMCoZejF+IS5SiAyhmpk3ztsEhCaDMasO5EPTJMj3wQjjMFmd2aMkaZSd7tzKgBx50fqC9CinlVvzMfDPExtdcv5FGGyuCeuzBAwG00NeRkyzt8u+Q2xOZFUtkfIdPD1wASUmaStRVSzgFfX2UKDX1YpXDenXBV14tjqTGAI8skyJ5BOp3g2jyBI0E7a5jp7RPB94eFobiKG6qhSkmvcY+eA6+F5BOuNHZg6NcA30AUiucfolBxek3S+UWuuu11L/nxf0J3TENNXs/TQWnq1+uivasTn/0ttdETc4HTH0Q9BYiKlM3SUAZ5ryyjdLa1iU6P+cOPN+viB+6swYRwqejV4zgICg4IO5m8MwBs6RQCPIA95up+zqDupmuowyWRgJqwnARw5vMCIKdfNdeCQZgBE1wfFKYbhG828YmNwPlGF54a6mVGSZQCVHaUAhbY4Dz5O/nL5ge0AbxyXps/5fqpBvtTWoOY7gaUaGIWrleR8zDCuS1ShiIb+7SY4PCIabcjRAOc3wx/5QQ8KTjDnUCigKqIQJs3ktsfj0LKYQ4Cgm8P0dtmWnJk7p4PSewLgpo+HdAddeZxO4vl44qsnqF+2GaAWVUfnusNM4+VM+oy74SolBo9UrKaKnsopj1swR6fUMHkTOoXfxfUAuB5JzXR/HKCFHsq2qNinr/LZgtLkm7dngE7D/0KHApZCTnF0+lIOhLvjLJ2Q1q0wg4EKZPG4UFMzAGgsJpGcnLeHx/iwShAmpGiHJ6VAM5KcmwEEIjIwnvk4xTNx8onn+EE+JRvFlGXAWvI6+S81CAA3+CP57SsGrkcIRhXuBmlkaDDCOKh4eSzuBL+dl5NVDdPODOC6mSGoHPUmRyQxQwfMRj15nsbzRApaOkQCd2s1TJVrDgwQT9bQTuhNkXkLB/IrVzWU01F/OjXA3dlOwa/Mdw76ppjsyb/4op4/81wNS1n4MAQbEFxv5oHmrUZp7JRLcA12V1st0psZT1+3OyuNyCq1tmr27+7XMy+/rMMvOlst2axqq2vVtGYN7se4auv6qIl7upkp8hmkUzWMA9gSAASJj6LvGgHwCDho8krUAnqLvhxAaIMdwGy8W23o7DbOW7oyXvspwMQoAPjilGsRbAkXM4PSthjqgEFhcIZ8crSrDuBQRqwKULoMPiaLQekUdGGf8DUn8itRD/tLi83Ul7vj9VU8T+kQySpSjjokUsz+hge4g3OO6alkY3C6rgkYr0SbS4jnUnMTeaQU69adIjC8eT7bsg5mboE/YYzqejJHupvZqFz7EaRcTId8dWqAW4e0WmBXYREEACVVtbSq5Te/0oI779QAeqHS0e6dZXTsoIMPVZ9vfAWdks7gWQukIrohPYIHpgV9e4GmfucyDTvicA3Zdx/l69MqAMpqhl6DKNuGrxxxawAmPNFikCC9CmtXKT93jhY8/pialzdr/brXNPprR2rY3h8nbzNOk5r/9ldN+9tfVGgqaqeDP6ven95fpZpuAXxxXJJFQKJCq3Jz5mj5k4+rYUGDVq99TYM+/Qltf8iXKB+/TVuz2p5+Ws/ce49ia/Ma/MEPavjXD1O8R0/CB4h9B6QJAxKa1BaRyNQ7kWkE362AsFm5+Us1808PasXq1cqsW6v+0K2Razvttbf67rcP8wLdVSIUIac0Er1GKRivLdEcDPT6HIzqvNrWU9es8gtfU8MTT2jRrLlqbl6n+k/tp12+cBjMWM31FmWfeUZP/upOtUD30bvvrTGHHqJCtfNFkkP3wPQdAusNhXZqgHvCgK4MQC3SkfaIJJrXa+HFl6r5+WfUHynrzs7SSVYjVtOZ25x1tqp32025WgweDLUU4A5SDjWksG69pl19mYoz52jXW26is/spU41aYYmEfuOZU2zSIOnU3Kpnf32fsrPmSPPnKbFquapyGSQ7w7KBBdC2ve5qJYaPxTfZrAU336RVDz2gepiqhqF8OTEyu96MqoQn5/mHHlcrRnFyAUBZtlBp8ulpEUlhWYCwzQXnqmrn3XFl5LX8Fz/Xkl//j+pQrWqRpMuo/643XaXU8NEIZQpllCnmkah8p/AElSxlV65Qw32/15yHH9eq5auU7D9Ao/fdEy9QTov++oh6rV2h9XifMnX12uW/DlG3jx+gZL8BasERWg3TZKubsGukGb95SI0zn1VsyVxlFizlXEn9qaeBmkVtGT3pHFV9YCdGMSbS7v6VFv2/e9QD5m5FEi0tJLTfDVcqNWoEHigA3klSpwZ40A8BTMn6LONrEsIWVi7VM8edrAEERtUCDv4HFYJLWsjI/OHbf4C0G6wS+iF+CKXaAABSP79ovp657maVli5Uv23GaOvLL1IGCZZAh0YGkjF4Q3L7GdRhxQD43H88ouYXXlD2scc0yOWBLw8Jjeif2R4DtPXN1wa1YtU9v9S8u+/WUHRbjxvIWdSAKvXHk1O1/Qe0+PFnVJgzV0vu+4MGo7PWU5x18rWAa32yVjvcdAOA663Whx7R01dO0RiG/+DlQJlfg6uk9wnHqe8BjBRIzijBjQCruJ52LZijl277kUrz5mOcUvaQ0Rp/+Xkq9rBxST2fXaBXL/4uDJUUA4tWMSptd+ihqvviwcr36KdUHgGRaFIV55c/8qxaZszQ8j/9XqPRsyA7zcVuQe1ZCa22veEaJQf31br7H9Lz192ocUGnzwYR1ITtM+ibR6ju058C4DVRx1BZM0fQ68s139JfnRrgkcuK6WqAZXUl1ZbTmsce1eLLp6gvIMGzBRgNSqbZ6cy+2++o2lOORh/sy1DbHNx1uZfna/VDD+ulh/6mIVXVGEwldfvMpzTga0cpiz4Zs4eAZ5OoMCgngWGSSC5KpHc4k23SrDO+q9qFC1BjPKLE1YB0TUz4qEacfryK69boiRNO1Gh0pRr0z1aAwhwpdUur9vwz1Zuhu5SBbVrWavUP71D+wQfAppWtOBK0oPndB+rDgBq9QE+eepqGM0LZaM7R4CS67Xp0kgFnnKHqvfYRAjkwZJESEgCv5W9T9ewNV6tbayPMl9CqeI0mXMQItcMIpfvWK79+vZINJb1y1KEayHWqpmbaugwJ+8Gbr1dswFbUAg9QEm8IAqGwrlHxljY133ybMo89BLDNqEa5NKfvAO1z7XVBNXn6zDPVY81KDUSls+Hse9YzAgz57rdV/aE9MNyxP0h2EVY8OeFEB/zp1ACHrkG9MOzsy062Abarb1Ltww8DEFx9AMpC1T2QoR/W4cdYUVOrGr4L2VYMoDb01AJqg8GH5kEnL0cNGHvJJKV3+mCYGbVjoMqGHs8XLFYBFvYk8MZvrlbyatO8My5U7exZeDdco7hWAvD6r5+gQft8WFPPPke1i19VL+vtGG9BWnFbA+rU2FtvkAYOZQRyiEGLlt8KwH//v2EkQD4SVpBX4wGf1raH/7cW3Xar1j/ykPqQjxd0mHFdndVI2K2vuVqprbeBCQBhCmO31KTlv/mTlt7+Cw0pZdSMKlYAbH0+c5B6fem/pZp6JRyERvtRvzX1sM9pK6syANYG5FLUtdFfPlw9v/xlOKaWSZ48DFVSComRZuRquOUOtfz5j4FmObjC8TDrPnqgxh5xhF77wU/U8ORDUDgHw5dUTx9ghmotdRtz5SWq2m4ceUW9YjdhF8ADQDf9x16UEBOO+lBKYPS1rNHc485W/erlPGClBaluKWFwo58WR46C1CgcdGIdxF29dCEG3zr1oCO60cH2aCx3ENYtt+Dl6K982qBG2iKx7dor4a7Jch/jQnDTJZOoRytWas7Es9UHY5As1YYEXEM+Y266TvlXXtWDV0/RyK1Gqm/37lo56wX1os5tVDy/w3iNmHSW1L1/8Jok1q3WSxdfpu4zZ1Bn3IYAogHmG37pJUGnf/Kii9STAK/hhAksnT5VzKXiYwc89f015rrvKdF/MLoYY1VxvXKzZmrmOZM1nHZZgq5GtM+CGw687nolUVFiVXWwZQbGxeO0rEEvHn2UBtMuR1TagwLra33fwdrh5msgYB06OF8Qg/lhJZD6My65TPUvTlMN93uhyWrqOfQSAtso4/ELLlEfjOGtRg/Xwmef0TD0uRwMubh7H0247YfE0kNUnussqVNL8ALDMOYf4PPEAlJm/otacMJ31B2gedWOwe0wVzvDVvaAwDfgHqyu4xfSqs0iOY9OOVMv3/0L1S7CuIPwvfbZV71OOIWOqEOyYqwBkpQtRmskzAZl7XNGX61CHQjRhC/N0TOnn6OtihmkswGFatG7v0Zefo5e/O6VWooE3f/sc9HF6/T0JRcosWSRWlAVdjlrour32osqYAij5+cWLNBzE7+tYbnGADSH8zbWddeoKyZp7s0/0bwF88jnLMX7DtLzME3xlRdQd6o16ptf1ZCDP0ewmUcBaDD7FT1MfcZ5sopqw28ANqFeXz5MtQd/WsX6PjApvmp80d0ZxXJz52nmqWcw42s/vdUJ1A7aMAua7vP7u2kz9MJ+j7eBchvrixfridNO1Bi8PWFEIu/lNejfV16rGTfepEUL5+tj3zldyYEDNPPGW9QwDWZEpRr6ta+p12cPUR5VJ87I1FlSpwa4u8ITLUUmPJIAbNGPb1PV7+4DicweIqWtMTQzcbEKiTnykMOUPuLzwW+djKfw66J7AIAEQMjhBXn8/POUWLNKEyaerNqPf0GtxLNUkad1+yT3xjjIM6yHmUEyrmm1Mzur5t/erzk/vE1bcc2zlo0Ardfe+6tm7DD99Zaf6rM/uBHDayD3ohateE1L//4XDdhuJ6W2G6NcqjbMmObjGeUfm6rnkeBbowbYCG2izk3Dt9bYo76sX593iQ4683TV7LU70pcVRevXat1f7lO6pp9qP/lhGK1a2TzT5nhrZl5+tWqfe1Z1tjxonxu5FP/zDpMvVXr8Nowe1n0x8qh+Kt+slU8/qIWTrtRwpK7jevK0wSPMLLw8+/7xbujTDaal1dxvCyPzyCN6dvJFGoUBmYZRWlB/Vm07Rtt88Sv68+VXaf9jvqm6Az6iOAIiv/w1rXjkUfUgdqd6951V6tmrPKNLJTpJ6tQAjyOxirjkPAUcX79G0779bQ1FQhqUaQCOAgELxLQIaTSejk+OG0MH4l1AsicTdDLutFSsTUUmbppw+T3xs59o3x9co/iAHZkEQocs4DdGsiUKqDVIcS9oyCHNcni56puQQoWMXjzzEqWRpr0AOMJS8zHCxp10ql757W+V2nGcdvjmMSrUpAEmeSAdRfyGp7YLLLSwv7iA7zuNK3zpTT/W+t/+Dh0bRmFk8pK42k98Tk0LX9UigLoPurwI7fUMYgpdyHHrRmkpXY0BWKt8wxq1PTJVM6++WgNjWRZtUF9QaSfqrCEjtdfVV6pQZ6MPprbuVbRPfZ0W3vsT5X75K/Ukz4z1bI96MEUjzDX6hssQ3kzcYN/kaSvhOlryox9q/e+oJ/fb1vaChtjH91N+aZNmr23QvhedL/XpE2jhmYkwAwyzlFBVPCIya8XoGjivU0C80wLcxhrCUsU2OiyJRF69WC9+/VgNQd+0fLDuidAhgAp3W59B2v76KSr17scDgAOFOs7Ynfe3jVPccWvvf1TT7/219rlpMtKqN2BAXuXWA0yAgiuxKsFIwf05OjRHR9W1IWfxmz/5rRM0hIjF2rI6tAbpN+Cgg/XCXx7VR669VMmtBhmGFpsAwgoVlY4x8lBDuy5rWMBcaFihWRdcrPRLM8PiDNfekrbvYV/SP375B33sexdhnI2mXBuWlA9ukjB1NpVVdRPyFd0qQbzMC2eco/pX58FsnAPcVCXyXlx4nqrGjVexDjUD5olhmHpiLEG9V158tfLPPwWjR/TyvEEDEqLfwZ9Xz2OPIDqTmVKkdQiSop7zvkeM/fQXWO2UxNBNqBFm7XvowXrs1w9qn4svUNW2o1RiAYnbkMfLZDO/SEfFGElTqHhmOOZuud45UqcFuMljCZ1i+C0xq5h94QktxMDph35s32qcDrNbbx0mfvKDu2vUpNPVGqtlYsdDMVomBlYGgjv6zRMWL/3vX9S9NavBnz+QnLujawNFAOTYlCpUgCIr80swgydxPGTbnZibu1BPnXaShgKmbkEC0nn19XoV3bnXtrtqmxO/qmw9K42Mb+qRY+Imxip/jkL8RoZnUgCltGiJnj3lZA1sWQ/QkIpWh6qR7mO205zmova99LvK98T3DS6SgDNHHUqECNhjUtMIw6IqZTHonpk0CcMSyQ9IqS1Mgnsu3UtjbmFCCTceThJ8+fitaWECZok3NmjeEaeoW2ZtMATTjFZWaeYy87jzFZcSL78dgwSzmva724e4nLmCk0/SYOjEQEM7SBiNxZGjNaslpb0vOpcQ5G4wFwVR2SLfwWvEyEB30CfUy+3zc50kdVqA272UAoRFZuvCrOKVl2nAtGl4R+w1wQsBIW3KvMqf7fBD135mP4xN/NwMulZcHCBkndm6cSrol0DCvnGCx0vJbkh+pGKch/Gi2FODuGfEiDrNPZRAIrX+/UG9eM0VuNgAMZ3XDAh64AZ7+pV52vt6XHejRqgFdaE6dLAlP3o/kjOJkeUFDRnq6Dm93LMz9PTZZ2oExSB8gz+6dshWen7JKu12xfeQ3mOVwYgm2gR7AICTT8Ezt4wk1RnyxEe+8Ac/0GomigZRF08mGUyttHHt6HHa/uKzWLnU2yYDjGG3XYHAsoIyGIBzL7xM/VG98iDQQVjWv1/r1Ue73IofnAmZQlUN5RECwf25Jx/Ts5MuQP92G7AR0L97DBusl5at0c6XXaGqsUhvB2pBIPu4DXQD3OAOH9raBfC3yNkhjgGrPoV6kluwRH/91tHalT63L9qegKBLQtiX0f92/z4zgcMHMrTb8AQcSLFq+28DMzCIci5fdO9jqGE4tQLeaivy3FNsIogojQ6J/9zgsN5r6y3BqDGbkIDitKeYVLL5xVpPylvD83322EuDTj+R5+rRa4nqAMw24MKyOpSTKpjTXh7PjCZhsiU3/lBr//d3THuTAf89jK8jzKAwdLS2RT2Jd++FTs5+LBTinbTy1DtPne2NqMKfXmxeq4ePOV7DsUNqQZJrY9VgPWVUHYEL8PMfJzShDh3a4bYUgdoVX7lKc669XompjxPdDv9SvzRAXs5o1v1jH9Pw445SDOMwRzk51Lk05a++6Tat+rPr6dxhTDM1z+Sp5xhmflXnuBr+c94EMdCdugAeyPDv/QmSARIWiWQrvDBbM75zpkY5KJ9sKgD34uJ1243XNuezuAH9M4Xeai+Bow5xkiBMUxhPSGOks10urfi1k0QjppCWMYKastNn6ZfX36qDJp6iup13RDrZ+9KKhISTGhr0yFFHaYxBBjhcrsN1bdDucMW5qtn2A+i51UGi2b0WA9Q2bs03KRgkMKjB2NSgaaeeo75LX2VSJMqniJhbja3Q49SvM1n0MRgSgxijtETd42aOAHBOUa55ovDaa5pxymkazGyoweS6wApaATDH4rqrGjMEvzcJFalE7ErSN+HRmXvyqappWoUvGxch9cqi+iyu7q7xUy5WftgA5ZgTqM0xrFBOnBnb5447Tf1WLiYMywIkribyZ85UfU48Wr0++VnoDi3NXkFw8IPvMBXPoYsMiXIqh+UzHfrVqVQU6GwchmHPVLHfwpJ01S9+pwxBSHWoHgg4JIj/IE0B74DDj1KPL+N/5UQSaWQDvg2PhyWqpblXp6TcM94cCKPJqkBNfo0yjz6q+6+9Cd23jz57+RWKEweeQ/KVUAdSACGP/3w6rrsReCuCwQjwsgCldcAIjbyV9Z7FXng4cJVRIfuLg0+Hetml7sUVLgsZreLypXr2hInaqo3QJq5b1fW2FlkmmobcgXFZ1R9VgYkZqzm0ISz+5du4SzpvmDi/dLGmH3+yRjICWXLau5FFlWmpqdPWP7qd2Ju02jjvgLQEbU7huck89qhWMLWOAhJGPaqvBdBh9JFfVY+DPqkCE1M5/Nc1HpYgemHVYj177EQNYbYYt30ArkOMs916a6sfYHj2HBxobrq6DvzdKHUBfCNy/OsfQSpA9DgSrbS6QVPPmaQRy14Nuq3dVp7K9gKDOejnO188WVW77Ii0BhFGj0FmFxpdULRlz6k4vzNIIxusyUxObU8+qBlXXR1mGMedcoJq9t4bNaG3mnKAG6mUwo3R+Ic/6jVcZr1gMpdlg24FINnmxNNU84ndKKcWlYT4Z+rp/UsMcrsZ/QmeECR9NepL9rnn9PIFk9SP42qkou2GNeTT++MHqd9xX0QkwiQsojBo4UtAzUjgNiC6yQrJikRfsVzTjj9Jw3Hl2QtiZshhNySHDdfgKVOoSgqmRq0A4FVmiNeW6tHT0fnx+ztAzGRZSwHx3fbQ6JOPwSDtD4ChF/faAe7D3PRn9cLZ52swHGVVif/46hOq+8QnQvhxiTh5uz/NhGS3yRRAvgnwb/LmLXSyU0nw1ykHkcIOVczEtU1/WU+cc47GoF4YIO4sk9jD/EtV3bT3rbco1rdnGNajdYs8jA6J91tp3F8xx3cTq213YAmwNN3ze82+9+6gZ84HbbtddWVwfbVZ77SxhaFabFytpddco9zjjxOFx+QHzOF9WRbhIfng929Woh8T6UyceOlWjOesRkS1ot7UrQBICnhzqojPbrmX2PV77lI/GIe7g/69mPy2ufBS1TExE/LxFXTyWBgNwB3INrjhkTDLWli1QlNPOEnDWteH2dgsehDLDFQ3bnsNOP/8EDmZw7uUZJSKEzmZfWmGXrzgfGLBWfeJFF5FeQuxHQ64erJio0fhV6+HLjSeEFp7jgpwVtudP9dCZnz7ocu4Ddbl53HPTpPPp567os7UUXuYHUauJDOB05sBPrrasX87F8CD3AC8dLTJlmI1zpof361lv/k1hEcyBhIbRJH/u3GX3TTm2xMV69kjLPdKAToC40AILFCDtQ+DxAF4cW2Tsqgcz/6/X6rm1fnqRadyp+YN3Vp7XnZJWASQtXQEBPEcAG9ZqenHHquBjeuBO0CjLq1UaXWvgRp/8/eRmOjLZgj62oaWY4tsGGLbsqgCcKR8lu0qAPjzJ09Ut2ULhTcRFQrVh3wW0Y4JP71L8Z7dQlx3LIw8gN+Sm3yc0rQjgwumGt2j2LhWT54yUQPWvEY+hpkjGvHH772HeuLWy9ZXEzuDRLd7sWGtXrjgPHVfMDvYBbZLXsWI3uWCMwnd3U7Zmh7mIEY2VCLmFKxP5zEwpx93gnovXYadYIAT4g4NFzBC7XEHhmrfoQgMxz9ajQLkoYb8qSCbE5XDyqXO8t1hADepXk8+hEIR8dx9/HBcxIKFmnnhZPVavRLJBWi4z7HJluStgCkxYRf1PeZoAvwZcumkGGGgRUJT6QOWWeHjXrZMSx5+VOtRE3KLFxAzgSMACZSkE1cRoD/6ImYpd97Jmj3go6PRa21gZmfN0PRvn6at6Ok097rzViDSuu//MQ05bWLYiSLsG+4K8d/GJY8CeLwmgJWJUfOYYq8u1oPf/Ja2hjkd/GUGtaqg7cdp5OTLkN6GEvf5Xr6DasIpx8GnyavAJjBxYllQuDX3hpu05v77NNQ2ASrTKuqzFapVtxNPVK5HDWBFtUAit/71Ab3w/RuD7bDCUYYDh2m7U05R1Y6jCC6zvz8aSewvzzNTXGuGXNqgJ771NW1N2bYTIB/5IySYPNr2ou8oV9czqHc84VryiZLrHJIJVP7hw86UOgzgpoiJYYz444mGJFPrBran1j2LuOQnP9H6x58Iw3vaoLbuzTP2CngmcAkukuqxY9V32+2VsquPq2uWL1eO9ZWNrzKlv54ZSB7og35eQ8cZyH7eK2OW1PTSLteivw7rH/TrKjwQDkcSvvLV//N7rf7ZT9UbPzlnUDdimkf9xuMjTn5o12CARSvGuQhjRKny7ZZxzARSloUOL02+XIOY2XSgl2u/hCaOOf5YYkw+gfTGBUi7Ah3QvQ1376SbhQ7x4JokGhAJXEVjC0te0zQkc48VS9SNtmSoU82AYRp41RTWbWJA4+3JvTJHz11xjarZmi6DhK6bMEHbHP9NIhENbqQ7ek8VjMDNYXYUP5K6s+4z8ygBaZedS8Shg9sccwNtYbDtjzuOeh6gFkIFqmAML35oD/BywwNNK8duS2dKHQZw65ihY+lIT9x4ZfuaOfO1+MlpWsnyruZFS1TbvJLNNQF0oBrGF9LXwPJgmQUQrYALh0XQV03UIDUBko0kA6oIs1gykzsfgMPdOZ7L4GnovtuHtcNJxyg3AG8I1736xVIwiWR8iNDQ9FNPqTeTQHkiEm1MriNacY/vXQJDDAYfrgfgpMAwk9euRyk2LPplsNDiX/xGc3/6Uw1CZSlgZOZQURrQf/fArVm1046RLATQ0a64QAs6mGEM+jbco2liWRwrU2xrJXQA3frZp/UgU+kDYexu5NWYK6hpzz21G2tD84uW6r4p16svI1crutPeZ5yk9AfGsbNAL2oCA5hTaan1/PDNnjAZu0DZXWDeHx/Q/B/ewhpX1ELuaYZGK5gAOuB7hOkyNd/KthgxRsZIhGyQ4M6xs6cOA3hw9ZWp4yE6QWdlXlsJsJeqNhhAiDrDF2B42wOHvlo2ggZuRtYF0PPbEgmwhWtBcvq3Ycb9dv5aauNdKAHcGKpC8AQQS5EcNlKpkSPV6lEAAKOwEzSFHk3Za16apZplK8I55xVjJVCOmcL6bccSt7Eh3nnDxjahMpRFtVxFJHMChm1dsFjxeQsJTWHVAaCzCpVDGnYD3CW+DWZPmnjqPoAcG+BJZmtvveMOrW1s0vAeA3UkqsN2BJHVJvFgtDQqN2+e1rDGc+bfH1JmzVpV4T9fR/FVPXppwm67q88HtlfVhLHK4lmpqu2jmKf609AQklmoBPp5NOOHVaI04rqNhcoFPC9x1op6UYRvjndDLdl+ByUIALPXJkHwVxyVys+8l1KHAdweAgusMCzz7dHP8SXIS1ZlW4K1YaYxAYKS4E1x4nR+sNCMaW62NY9gDJ4GG2fWb71bVALJ5hSAxnl3iOV3HAZJEKNiHiDUECnn2c04kt6r7T3BAjMFBPAsem4R6eaZT3tJ7C3xJvt2sqdsKKJChC0VIi5zaS5yQ0KFsjS2Ieq4GG8i5I1zvF+5d8pinMC44xvmDBvoUO8kHppFS5frGxh7a9gv0TOPvXCq9x3YUyeddrx22XVCiC+ppvzielbnZ6N9FduyDUrXsvQOhsl2r2URtWUwCz7yALzF1MVHXhss7+CGNM1NL5vBfu1LWOxBbIqt6TxGp7egLlCfsIkP6pEXeCShS5idbd9O6FhptWldSWTdqVKHATzaEBLJBXHCx4C3tDXh+URDaYRHA8us4CtOPMVfPgDdxp031wl3QumI1hhSPqY3TXB7OZy7J07MGDgcmD00CO35qJRHCb7RHeQes/RH5/cJ/wwr8znANi0n16GSNvSqy7exGRrl0zALOYR/Pu16OiYkb2Yj2XMTHHMUNWPmLB078VQ2EIUO2BSWtgkMQVaj6WzWZe69514YvbxehToUmZAqEQcTp54O9Ap+bcBvRreh671VHCrQ5khBiICX1YNIaEtUD35DnzJPM5hE7ckxd5CwsW5ac2M0iWU6+GP6hEZE5HYDSJVTPu4CuKlA8pItU8nSJIAUCFizMODsbjN+C0kcdPSKA5B8b9jXjyN3jDstT+94b764hwPrrmHINyR9jzuHAz6+bGB6yzXvsRKdBuxka2axHm2YF8p1MgC9DAshy3XqFzICbDzo+6LkXCqp/THnggS35oveD1g9OeWnXA+PKCkzmlUBl+9KcMhtgD6mS664Ug8/NVVrmggMS9YxclFfDFZL7InHHq8vff4LAfA4srEnWuDDetppJnLeZmrq6dHImaKSZQh1TBDkHvZ35KzvMyANxMoOtwa8w29t4EIeLjBK2X7h0LZJYHRo4LBYas7Z907qMAkeercdnUJHm7rhE3W8AeEuCYDnqKL/GYDuB0+LG7CWMk6+7s5zh1mWh2nlcIUbwyjgcyFTgIXRyr+KLWDp7WuW7paAOSSjc7XkC+XCaK+7BkOe/vPPne0zHhnCLlwM9V7I7BEGXvUVQOL2WMWiDUZZ9AAMYDWIICw2Gpp85dV6+IknudZNjQSDJRkFrOKkqdOnP76/zj3zNEwTr6wk06L3UTQ1yJ26B6YPNOEcdW5xyG1bFL9t2rgOgV/DYUQ3q0sRLbkB4lme2IVoldHM6GdylG/6uMrvpdRhAA/73kEpE9t09yfoqBGN6XwICugsiaF6GQwRdSvqAk9z3uS3XIk+fJFZWUrzbbBHTOAwVEs6FgJYgnIU4r/5DnUwkMF+xjOmGF5BD0cCp3GPuQTPToZnQk05FZKvVVJ07LoZBC0sj0mzaMIGsdvikF0zr1fPOB+7NbzRkEHu0Ffr4+ENcXh4monHvvPue/SzX9xLC6u0vrEFPZvALktzplz2/OAuOoOJn6H9iKDETnBosFvmkFhLcUt0h7uagTNwVm2WIDLaZvC7rRE9yIsqB3JRNcfZJCGAt0/2TXmkCq3mnL+9d4qvRf1VaXHluz0VnF9nSh0G8EgUQLoyRUwkC2/rKWX4BYADlwAC69vRDdxj8Adp4k5E8tE5fspDbsiPP86K7g6dGADFcSEA3Ho3IOCq3X2+z25HsoQB7BJkIonrQYOwThsNIzxN+a5kpcIcRifCwYZjMjRTmlHSMFLF9QeuSfw2wviOAfAQL8OxjT3f5/eA5m3UOQqS37/49a91109/oUa2UfMSNwPUepL3cpnAZNFZE0/TyNEDUW+8z7nzN6OYetbEOWEG4hkvonAz/HH1A51CLaiJb+Oc1Q/TxR+7Y82IvhB2yyUvv58nar7rv3EKRZdP/fPVje/d0r86DuDvWksDtMnNHesPR1DZKk/oEP4EbPnbBhRDLbfRd8Cf3vUTXvUTDDqklD0kXmxhkPmaN7+xMh709CAp352KgzXAFZUfau7KuuKuHDW2VGcCU089/Zy+e+ElYYFG1q5Orlp1KOLSGzlsqM4642TttsvObITZHAKxbLR630LngqUZ7qW10W+f83EggXPacN5SPSrb97x/0vsA4O6mdol+isAYdZj7LYpftgpg1xxyk5NVaVxg7JQVB8ie/rd6FMd1GFaqcE8zcSTr1jcCdPYFYWbUm8F705yNynKx4cQ/nW1XoX8+DLAKo4fB5l/l513XwI7RGW8Y5FnUuQsW6cabb1Gbg6NcpAGMFPeKpz7Es5w+8STtjhuxG2pMK8FWKbwg4T7yCvdSRlRRn42SQe5zlbIjg3PD9fJt7/mv9zzA3YFvhFeQX3Rq6Fa+PVPqrvOe1pGe675FWiOcX541WysJyZ350itayCTTWlaOZ1kU0YRx19rSEpiiubklEq5kGOX0TvvderfzqtQcoFHBUN9QU/K3mhCAaeMT9Qm3n/cUbyM+3iOOR5kqFmg4Bqc37/Y84div6WP77aM6Zh2zzII6xNeqhz/24kSJH5X8y2fe71/veYDT/XSilZCKNAImBg8iylLK0tqAsCRMII3nzpuvufPn6+lpz2nh4iV64cWXAog9t8F8D94K68GoMkh7ZxD27wZoQZc2CtFm3pUUwBsBMOTnvElWTYzBUJ6P0aPNlDmAbaB7hwFOoEqVmZW6VrF2c/iQvvr+dVPUu1eP8KwXPths8XxCmCcgqyiZrVwAv4z+ctrAbJUz74/v9zzA0TnsqKBT3WfuushrYbXD6oW/1zLz95e//UN/f+AfWrhwkTJI6CzS3BMaWe/RQPJzldgSgyx0vdUIng+zlhQQmMWFtU8bMNL+7Fs+boc78+VGySZwxcNSxb4rZjyzcg5wJ5HmYfE14C/xnqEP7LC1Jl98vnr3ZFaT4aHi0rNdai+imcSvFXFbrKaZYAlPQplwpC6ABzJ0vj+OnbAu6iE8FjrdHWofCese0Z3vvOvn+ts/HlQj6oaln70UBnWabRsYx/nN5kIGO1LR3oywWSTN9Cs/rORUEWPuY4tP/4vZSG2f3g7AycL1CyoERxunKH+fdV1TxJpwa2if491bWzPo2LSD9hqsXuFTS2TZt08+lleD7qXqaurLNT/k/A1wqyg2ln1/AXC7nS7WXqbAKFxzee/H9J6X4J6kMFAt1Qxg74b65NRn9Jvf/UEzUD/WruM1G0F6MaR7jtv6KGC1lCsh0cwceQzIXj3Y64SFEyNHjtSw4cPUp3dv1dXWqjtrFy35DHa7Fb3fSPv0doFhgDt5rCiPF+F3dJ4ztInSqHNKr8yeox+zQCLD4o2ATQDp1Uo5Zjd79ajXxJOO13777MndANYSPYDXNY587h6dXFpg0HJpySAUIqPV7skoyOrttiZUvVP+ec8DHNgGHdND8EsYjL+893/0jwceJliLwZxzloKRpDOurbcyocH5OjwO247dWh/adRcN7NdXO08Yzzk2XkatcWebAXIAP0UkY1BNbLQZIuUh/Z325gaAW+moACsCdgR5G8dJPfXMs5pyzfVatmJVYAWrLMhh5TItGjV8qE45hUAsXptYQ8CKPSGW7GZo5+iZToPcVQ7BXbTL7bcb0fd5FDN93KYQTft6Pd5p6zrP8x0K8I1lYXuiRB1ekWYGwAYpFz3lTuOk59rUxELie3/1P7rz53cH/dp741ldCbn4Dy61JNuy1dXVaZttttHnDzpI43fcQT26s88Hfu+09Vu7Aa2fIq2dt5kigAH1xN9B/nH+zevcvv6bP7ZUjdplgJchbqlNGTYKbTv8+S8P6HrWgK5n+r6A0Wgj2TaHoxNHDB2ki87/rkaNGsYUPvq1PSduqylFPiHHcAJQc9752QuTB+QWCk8Q775q1WrVM3Ltsssu6g3DO1lZCapTmcCe2HRyHm8lvcXb3kpW78o9APyVDqnTxkBxFdpXIzr2AGv1I+iSHJrWwdDicpotfbP4hWe8PFe3/vguPfzoY6quZY0j/yydangZksGQtkTmld2fOPCjOvxwXjw1eBD5INsc8kqGUT38lP9tLvnu6InN3bm565Ha4BKjj/964ilF2GsJVeqHP7pDP/7xz8ICDXuAEMGRrYBrZPwO2+qaKyajpng0ip4PsTxvUmiIoSHPrGc5WcH/81/eq1t/dHsAe45lbSNGjNBxX/my9jtw37CayLt4JZkTKHItx8ypk0MNwlHERW9Sku9592j0poX8GxdiLUtnRS34Nx76P73Vvq1yqgRRGVQVwoVvOsC+3vv/dr9+8KO7tKKB+GgDgOcsbXPEktcglQf176dDPn+wPrLHh1BD+gSD0R6EsM83rbZObXFNdjzvMjaUXanDRt8G2rsF8FAoZZepb6lrIK/nDQt3oG//5ne/R5KzfTHGcTVrKf3m4yr07gP321ennHSc6jAm/cJVj04R9Fy3TSeXYbrZRvFCikuvmMIM6bNqzrDjAOqM1TvHgR9yyEH6+lFHqBuvHEzRD6Ww0SkPk4HDD5yHP++l1IEqinv2XxPL/m2DMRCWIdpDq6X6+qZW/RYA/JTlYI5n8otJrSsbvHEkWh3S/cuHfoE3F++nfn16ByCEzgpgZkQATKHk0PGuh2vCmX9dnXDfu/+H9gXmigfAXcr7h/7x0KMBeMF3D/D8cp46Xmr7hYMP0hH//aWgb1fjUcnB5Mb45hLyOOjZbqlp+dOf/Vw333ZH2Ja5jdBBrzTyiFaHUPjUAR/VMd/8Ku5GtokgxsUhKX7Gy+giRoro9WZlmpk6U4pllr7UQVWKyB2hqoysICEr5EFaWMrx35I2mo3k7QpMr1/6vav1N5Zt1fISqYYG9utjB1S/idcSf/yO2+sbXztSu0zYiXW/rcROI6HIx7q1pbvfOx+m6w0qqlAZ2qMabElSVMqKGDjBUrjpM17S8Wy3hubFC9Vq1Iq/vhoEV7PI9OijjgTgn8VeAKwwstsTvB/Ab/Mp8oF7EstuwjZUuFtv/6l+y46761pZK4rNUpeGNqwkSjEi7PmRD2ni6RPVt1evSDVhdMzyrDdi2jCqbrrUck9u+mIHnI21LHn5rVDo/6BqlWI3kMSxIJGXwqi2wcOXRUIIxueVHywCuPCSy/XoU9MJ7/R+3sRcsBggSeyyd6T60he/oG994ygkto0iRLuHb749bR3eWf96K2zMuXyXXSk/jBOv3/F/fWDeraQgwWG8RYuX6/Ajv4ZBab8+PnBUkzqWoE0672x9+EO7IFFpT1BJAnl4vH39K7lt4tvM7LGPNvufDdnqbj10z69+q2u/fyuMhACBjn67M4YNa1DZP3yQZ0av04Bu9dCTEAGMdI9y7aodCvonrxJ5u7TOkmLZJTM6rDZRwRWSlYkXej46Z+IFICJ5F7PHycWXfQ+jchYA8JIqPkgeXqVKLEa1zjnrTO0OCBIGtFUb/CuRyzoqxXjeUB5ltSsn6ox3EeBRQW/exzSvcksFDMwrBh384cee0JSrrlUrI9VYtsQ4deKJwR3Irg+oKvitaVuUKnTbvI4Sxd5X2hcBPMm+hm0ssH6OuYIrr75eC9giueCwWtyGMSREEaGx1YC+upZN78fgsUERpGzXtlJuuRpv+IraU2ndGy52wM9Y5sX7OqY2m6KTRUs4z7drxSRHCUNrLdvInn/5tXpm5my/DBgLH18wQUZojhq7VR+d/K0jNG777aNZRoZuHNk8zMcgDkDmZ1AOnTmfN23xm17guXLaSI2qnPw3v10N3HVRRdxWPowywU/EKNZKcFdjUwuTTT2V8ILM0B7XrXyvD90O5xP98cGbJ6TvhuTn+KC/M0SE46WLFuvSG3+m52YtJB6eYC12GbCXpxoPyrbD+mry2RM1ECGC+U42FQYr51ih74YComa1/92Bx7FnLv+vQK4tXYdyd21UbEQrBlEPpXx4EZ4a2VP2H8/N1Z+enq1iN95igLGZzjepvrBeg+ri+uJ+O2tEH1a7IN0MfOunlViSsEYzAIHSAhj4AqDlw43Kjnplc6Twk5t+eqPM3kI2rCsgJ3snIsnqOlt62lUY9ik04InnjiIgHVxlG4KFDOE5SquUEQ1TGxX/zz8Myo3r7ZAEM47Ltc9/damnfv0gL8patDrQPB82rWMCqNik8SP66jN77qrByUb2Qve7g9qlqNPanehch7F5Fx9QIdUWrVlFELqD3cVhwSw1IDok6N0lgNyS6qXHZ6/Wz/8+TasSPdmdqTcCJM52Y6s1tntOR3xqTw1Lt6oeolu/dIxFgTiTQHMA4jwr8iYaOqMmbtTVtN6/AxE26wLgzkrF/wW1Nsp/E/e5LO8B7jq5SEfOuO5Z1JIk3iBHClaxqr7A5FNkXJOjG0WbKnlX2vMWqsMzUVkeIJ2snuVxO6YItoKDcJ8m1cj6z9VsGPqz+6fqhWUZrcvxmnP2Dy/yJrq6Uot2ZQewI/ceqe4chyVy5BX0efOh86Qi/lTWuIaCOsGf2IJLP1Zu9patjYFnQoVFveif3j3KawDjENDrH1vjtZq6IKPfPbVQi9qYpGDznWxri/qy29MAJMk3DtqVHaPY8QmGiN5ADJHdhIDuTbWlAo1NXdvC5wLFN65PZKxt3BWbbMomT26u/hU2f/P78EFhuCe1OJPS3Q+/oueWNKuZ183V1PViwTQxL7F1+uoB22hcv2r1ZGRJ8/FyuAx95UXKCV7F6PWcMc5Fy/LevKwteSU2a/JHN6bqFirdC24dMeGFrMEkRBLEWBYeYxFtM0DPJobq1j/N0AuvZdgquI4dpfyCqUYNSK3UYXuM0fjB3dWDBbVF/Lf2QmwMly3UiHdUzFup8ZbrmiS2i703Lbxtbn5TUXf+/QXNb+7Je4l6sDFShtd6t2p0XZu+sv+22roHgolV/W0Y9HHeke43UcTZ29Hqoxm1Mrq8I/K8Sw/Hlt2195ajYrtKeyirrEA3x/ufRUESC553ken3f1+nex9frvUMnbyMj1k4bw88V0d+apA+N26geuBB8f59XmlORu1yfpPDt3LPmzzaUafBykYpsMRb4YuNnuLHpvQY50P+ge58VyNoPLHk2JM84bjPryrosp9NV0NmK1yHkBgvTk1prfYcJZ1w6E68da45ktQIqjQqVRGjIkMfGdzR+s43VqJjfseaH9j/DWTcghUx4U1og8+18Kwk0nj+mmpNvuE5zW9I88IoLH1iKKqTDdr/I9113GGj2G2WgKgM7sA0CxpQc6LYuXb1/qdhnMzfCjA6jhLtKt/u8K3Uud3tb3oY2rWZzAI3+R5u5rg1WaNb/2cOgmaFWjLYP2xCVIplNKB6uU776gTtPq6bavyuI0cjotw7+tIvCfDM6mYl+Bakc6z54Q4COI200YMgDmpziHXgRDNustt+sVR/eoxN60u1BPh7l9W8etWs0OXn7qkRPbHv6YcSCw/y3raMtWZBiJd7NwyR/wTwN+36Tn1hUzjYDEzfdnu8/6MVPQPU5Xr5XnOmVld8/2k9OZvjErvwEstSk1irMQObdNV3P8p+Kw28oIsa+T+TQ+5PM8f/VR3fTuNizQ91EMAhoz0JgRoQhnmFsFXw9EWtmnTVy1rT1seCmxUrRdWnG3X4ZwbrsAP7sxEP25jhLvMeIfakcRnzaEN62wB353S2tAWR4hfRmY7Gq73mwXXOpkfPvJLVxXfM0Oq2/vQHIREYl/VVi3XkZ4boKwcMDe8zwr70PnXMTUTduVmEb0Fax5oe3G8LFrcBQcHNW5a0YaNNKNvIpM5Nv5ytPz6Y4w0ObHHsOffcWk3YOqlLv/0R9O6VwW9sse/t1Mwfkf69AQmRN2JDOV1Hb5UClt/MctInwWWLdPGWcatbErr09hc1lZCltjzhyBih6eRqbT+ILeYm7q6eyVbey0kZcEeCt0UEDtnQHaHwjuyTjpPgEMEGjiVwcFYzNi5pqdKZU57XnJVEsiGlC/hge6RW6eiDx+gze/RRXYKgfmKgo92bgrwpi4wNnfi2JfiGLP4zj9AvLL2tL1bscTsC/Jrvx2dkdMWNz6ixNATB4/dwZtQvvVrnn7SHdhzl3W8BNmK/skfiZiX4FqRwxwG80kgD3MYl4vj3TzTomrt4h6V3TEUFsT9lu8HNuuC4XTS8Lx3AbCVRVWF2zxtwvp7ajUG2ld4nKvjrzdsSB/aSQF1GyDJQ+S5h43hrxpa2Gt3wo5m672ncKdX9mGDNqaa4Tp/9aB99/bAB6o6N5Fn8sD7W0qpd12yJuv+rMjoQ4GUk8uU3CDTzDssLbpmlJ15haVlrvZqREj3SDfrCAf301Z9LjDUAAAfjSURBVINHqoZlWiF8gxXkYds83FLB1WhikkdXemcUsLzwx0vWLDzCyOosoW0r8SkPPLVU19wzT2vb/EJYdrpl++aeWqFbrtiXiMMmhFF4OPKDe3C1lOkE/dJxAKf9ZSsyLFpYvj6hU694Wotb+qi6xW/uzapv3Uqdecx47bZdGj+t5Yv9tKg1EC5mgPuYs52BkK7Gez0Z4N4Q1AEBQYgQh15i8bbfabSsoaSTL3tcK1sGcAfzEkXewJF9VeefvLP2/AAvqeJsmKpHWNm+6gK4fUoQ1F85jMuHpq3T5Dte0fp4f1VlbLEUtM2QtbrglA9pULdWJIbFQTQRYeIb1HYxOlV0xuhX19+3RYGIvMy1WWgAcNOXCZwYIM+C/Azv4Lz8R7P18HQ2TVJv1EWrKUv1tUNG6cufwbvlVRqkYAO18469rbq8iw91nAQPBIWYGJdrMwnddvcc/fGpnNYRxZZgW9UqJhE+/eG0jvnSaPWqYukUksQGZpAwFYA7Rpr0+nAa/ez6+3YoUDZeTFoLHsuOaAIH3ZyTfvuEdfAb73pJTYVBLP4uqVtqtSaMTuisY8dqAH5wB4352SC9/e0+bp98rpLeeK1y/l3+7jiAW3RDRfvCGwu1mnT1c5o6v5o4FAdhFVTPK4tPPWq09tu5htcIejNJLkDoEIUXeoHjLoC/i3CgPwCx1RRjz/QOeAT40UIH0T/SpBuf1prsVgDer0VZoSE9s5py9gc0og7dPVioPE8GlaWAG1UwZFg+40K2QOo4gIfGET8IJVeic590/mNa2jwgLI1KIL1rc6t04Unjtft2NbwnDOnNzKWHvzCAdgH83YeG9TyDrgzyCN38Nq0DYKXFzTU6a8oTmreyD9PyvKA2wZsnSmt06WnjtNvwKubfzAyRirPJCv5nATxi4SKLWeeviuuUi6ZqVWvfyA1Yalaf0irdMGlvje4PuB3j7dhl/gfB76k2UpcEj+jwrvw1+ALA+fYxn/CzDHAvql9XrNGZV0zVjEX1eAXTqIZtxAg16Zyjt9YB49g4COMobG1XFkDvSr3eYSYdJ8GDxOA1d0iM5+a26txrZ6qlaAsdTS5JUE9puW66ZB8NrGdrBI95SIcwnYzEJ9aKhLQob4TZpYO/QxSYmgA40DGSO5H6yPngmgXtnpdoZpLn3Guma+psxlTi9b0JfzLRpBMPGaIv7duTfkN6A+4gqMv5lMfcd17Bt5lDxwE8yAeWYjHD8MycVl34/Tla09IdCcCKllirtu25WteevxczmbxNjIi1ONY8hnwQK68DPMzVQ9BKp7xNInQ99kaAQ9CyJwTSRz0FA3hBxORbZ+vvz7E3IlGe7G2rVFWTjjlosL64Vz37rEBJhthKf1hd8cOb1Me3ENE7DuCwOcpHePfMQ0816Krbl6ohNpgNfJrwmMQ0bsRKTZq4q3rXeL8Ty3UTKuqIQLSymhJRM8iMLUSy92sxFSmxgZYVg9MttuuQZQ66/CfECk1tZQV+D6XybLKfXKNDDuQNEweNYc8W4vOtQ1ay6gSk6jiA03hv3ltg5fz9D6/QjXev0OrCQIZC3ovDwofthqzUJad/SH3aAdz0Cr5vSwXreaEvTM0NneJ7utLboIBJaInbjpYGuIWKkz0pOcIGr7xzrv7wVAteFFZYobLEWMp22CfrdMynRxOTgi885BE90xn+dhzAGccctZZFRXly+nqGvvlalR+ETsdLlPCxju63QlPO2UO9q9n1FUqFYc/050foBv8JaeNOqZzt+v43KRCADC2N6nIKEZ8ce9cK47aA5+Ty2+foz9N4yzJzl0l0xmS8Scd+qZ8O3XMAbkPcuQ6d7USp4wAOTIvoeRmm3KfPzuiC62eooTQC+dFGEH1BA9JLdeNFe6l/fRZNj2QKc6+NTTuijPLQFf7DcVd6ZxR4HdcVujq7QGC+OWcStxSrNIl+emI2e7ewd3mMkbY6ZoD31hf3GYwCAydUFHA/3wlSxwEcwBrgOcTEnCUlnYH7aXV+VFhE7N2q+qYW68ZJH9Xgnm1hK7ZAYevdluBlwlfo3wXwd46kiupnWr5O1/CDXwHgjtdP67wpz2ra3GriU7wXTUzd1KCzjxms/SewONkPmhMCyDfk8s5r9/Zz6FiAo6L47cOLVsXwgz+qFdnhCOoUBOaVIvEluursD2uboXk8K5ijqC0VZL8eg+J2m6Bd6R1ToALwjQUwY6X7qKyiLGpN6LzLp2rh6n5sylSDMCqqT4qlhGeMZXMgJno26oz/dIC7S0w8ALq2La3TLntUs1f0BcP1GDCEYiZW67SvjNa+u9Wz0TueFBPZEtx0sxTnuY07wxl2pbdLgX8GuAkcgdS+cMd6T18Z12XXTNPiFbyqMN0diV1Qv+QCpurHa0S/SPkuT01Qjf9wgJdAdryK4CkWDWdYnjbp+9P02Ex84HHWYrK4L51fo6M/N1CHsk1EMsEOsiayucEUrACcc13p3aGA1b4ASUgcpIez5YQFid/SZu/fA3PjmnzNUwigwcrAEVU4BD60dZu+862t1a+WvQ2cAQ+EfP7TAR6JYBMRs7KQ0h+faNKNP5+jlkLvsKC4hrCrA3dkD44jt1PPnp6u965XkM7UA+BhNOwCOIR4d5IleBgRA6LLeUJrw9UAb2zO6frfLNbfH23BXdiDFVhEhbPD2MF7ddNxXxyqtDnA8UKI+84E8P8PAAD///Lk6wQAAEAASURBVO29B4BV1bX/v26dShl6tQKKIiKCogiKqNhLmkne8/8zUZOXYmISoy/JyzPFxJ+J6eal98REE2NUxIqK2BtIk6JIGzoMw/Rb/5/v2vcMo4Lm8RzK+82Buefec/bZZe3vWnuVvfeJNc2aWrS9ccSKVoyZxWMxy2djtmBNyq754fO2ua2HpfLlFrOMDS1ba9ddNc4OOyRpSStarkD6hFksR5V5uJAoko5/XOfEtb3RkP8dZRagazwnGkLEuMgrynLki1YopqyuULQrv/qcrdrWz1osYbFiq/WObbVrLj3Kpo4rI2HBikmeIH3oD39aOezVI9Yw69S9Agto6KCMxeOWy5ptai23L938LEAvt0SsEkK1WXert8veN8zOmlJj3csAeBtIFv0FcAhuKYjIf1jF+0UkjdExBd3rOv57FACc8XzpEQgpmSGJEk/GrTUXs3krMvbVm+fa1myNFVJllixmrHt+g9107Yk2chBp8zxRJs6Q0FG36DMcBTFNx+MNPzveeqe/xxpm7x0JLi6PCa0AMgvA82Xl9uu/v2K3PNBgrdbT0kj4eK7RTjg6ZV/61DHWI9FgcYCbz0hCFAL54hARmqozBGqycoC/00T6fyE/Yc4hyYd/58MBD30bYkn7xZ9q7a4ntllbqhoMFy1VaLTJY8rt6ssOp7daeTZmuaJ3quejvlA+OiR0XndEN153sXN+xBr3EsBFJElxMbfgWkzEbf6yFvviD5fYhswgK4vFLZ3IWI/UWrvmI0fbcSPTljKNoUhoSWxoJqLCB3x2IGbn0Ol/f65gsyABXCJmQlhFgMQSSO/aNvvat5fYmqZ+lkUypWI5q0nX29X/NtomHGlWkcu5cJGgEZjVpxGm/ftepF5sb+ngRZApcIrNpbsV0N3aMmV2/a+W2yOLgLKGR/S87slGO/bQpH3pyuOsOtUImAE3HZHnHCswrJYA/jqU70WC7rdFQ39UaysImSBVtpGQ2oKgufWh9fanOzdbg/VntEV1jLfY0Jrt9n+/PNn6d2uyRA7dRn1Zetb7Yh8hRKzx/tNUtT1/SHwHloeayGR9L5TZ3U9vt5tvX2mtiTLL5HNWhkjpW9Zkn/jXoxgSKy2RaSEhVZZ6gm7oxHRO2fNN+F9VouwW9YmDVHRF5YjlbXVjzL7y/ZdsRV2FNebTCJm0VbSst/edfoBd8u5DcQg00G8AXDpnXh4APbt3ILWz/ogt/c6EvVIbt2fyceghiZxHfytaWXmFrduetB/9baEtaUBxqapBYiSsPJaxo4bk7bJzRliPtnoMTgzT1ixqTNKydEyBYbTr+J9RIAH98wyH6pciLpUCkruRkfWOp1bbo3MQNthIBfSWZFODHd4zb5+4eKx1K25GenMtxUMIqXxbwhLypLgb5X9Wn3fq6dhr15++VwCOAgIlUTGcGEV0OwQA3B+DsHM3ZO1njyzFs1JpsfIqQNwIMbfZhWMOsnOOOsDSmc1WhWeqqIeKCSkr7xQ9/p/NRzZRAUEjFaVYTFtrLG2Lt7bab2cus/WZAdaG1yQRa7Ua+uKsUb3t3LEDrBsjbCFLP6YlwRHkCKMErtswNO8bpIyt/PpeUlFEB4yVhKwa/KwZCJvH0CwrtNlmXFPff3SdLV2VtOZizrIVjVaBbDmgLWYfm3aiDe7VYGWpNh8SZQwhb/YNau7HtSgWk0jojHtfi5a2TS0x+8WMF21RS41tSyGlE2n6Jm+HdMvZZaePsENSzVbVFrd4PG3ZRIv7yuOoNI70fUjgxJZcf+ZekeAyYAqoJ27UQBA3Fh2ncWtLpm1NQ6v97L55VputBPhlls3krVssa4f3iduHzh5nfeJNlmprZgSIA32kOK5DqeUdDwUrdPwzDZTayCjr/dOevpQfSpTn4zmVrpUclaXrPBYl0ZVSue03d/LlDVXdSYp/7lLHYnf1hMrqWD8Z6roWng2fSRJkoGEmXm7bYtV21zOL7anlW217vIergYR2bGB2g11+wYl2cE+zHgTiYhmoANFzCfy86sOCdBV9/WdqFZJ29mdsyW+u3iu1kbNPIMmXUClJnESaF3CRtIj8FVX27Ksb7Jd/vc+2t8asrLoXgZ5G6x5rshF9yuwzV3zAUrlWGEO5oDvKIE2nCRplHV/qwtCwfw5KPpC8gdq6FsFAZ/VbUnXjUPBCbsqOxItKkr3W8Qh4j+6GO6//1TH1f+/7G4Monu8bGAxTx+upezGvdyhDniwd+ixmkdLJMmtlNH187hK79cEn0cG7oTqWWQE3YAWj68SRQ+wD55xo1cUGq0K1LGSD/ZNP4L6FWDGcBG5wvmFEfZMf3EvdMx+xzOrn39Ade6Zgd5aqKCSwkxjC+/go2BApk9cKqNpXrv+WPfDYc9ZWSDMcyjeetUqMzveef7Zdfun/sYo03VYkJeAutuJhIU0Q5d6dKkClkOZtmllK1i59PDkfbwCL11HXlJ/q7vlGD4ei3vbzv5n8bfN7uwQdJWpEBq//jgcLOTwgjIT3PvCQffuH/2WNBVSWskrL4gIE4nbcmFH2n//+ORvYt8qKme2QHJonyp3WsdLQV6SPgv6976iMseZ1S6Im72jtHvgWh+MV6omkpCRxHB1PQ16Gi7lYwrG6dv0Gu/Gmm23O/CWWgdgySuNAP8WklHdf9C674sOXoI/HLcFzwo2HgRCh3igHEh/CYrjyFi2LUoThO/rVDmDykMpTTAgIfGc417EDqx2/vX0Hh3Z7Fv+jj47Y3VVG3hanQZSCuqotpdqrLm35mP3xj3+2v9z6V74XrZUmFBAWxWLehvbrbV/7jy/YkSNHILWbrRxPiaZYFHgmJxUR/TJGJjEMftFff/vKEWteu9SxsKcrJDiIwEFPBupyhOczDJOYjBAvg/spgSTPMcehdu1G+9gnPm0NTU38zrkkjwPwPGkuPPds+8gVl1p1FT5yCdS8mCC0RhJf3gH9dYTiTtvKM6HDw2dM9SlRRlfk3YH9YC0JLTETV8WU7VJcmOEqZenevnQARa+X6uqqldrifm9oTX0lpf/6jzvtl7/4NTUX7flMJmlvwbpXV9h1X/qCTTzuOPqn2dL0T6YN/Zs8iqKvznCZAB53Ou9LLadP2mpf3iu9ESSYwwSKCBTifEK+Dg59JvCNAyScrJm2nL3yymv2uWuuta3bt1t5VXdrQ2csEMmsqS5jtuEB9tXrvmzdu1UZDhiyk2+WaGhbG6BXB7RjdZfUFxFk8MovryqoBmKiBOU3t7QxizFpTz/3vP3j7hk2cEA/O/uM023UEYej82dcmoun/jsA/2ck7y4r2+EGJHjbo4gnKkn9nUkBoagdT0DXbM6Z9r9+8lO79Y67raysypqbmSuodruUyNpHL7vUPvC+90JXATgDbURMuWY55DVR+fwQuLGo+AG9/aIS7P1jrwI8ECLqIaQhulxRUTGIGCeII+meRxVI0hlZhs2nXphr37zp+7ZxW6M1M7MwgeuqHFdjGu9Kv9419qUv/ruNHX0kUlyMgm/FAetKS+iQt6Q34BZDeRqkN8/GUZMYD6wRgP/4Jz+z+2c+bE2Agvm9Nqh/H7vpxhvsoCGDSFfKWLzh0sy7/y1Lk9fonTj+GYCLWYtI7BjtiWnko53NrRnbtr3Bvv6Nb9q8BQuYRFUFNtOW4XpVWRpjOmNXfeJyO+/s0y1NA1NI9FwO1ywuxCKGaEA1klxCCX3d20NfCPH7FMD3loqiaFeQYhK5EIXf2OQuEeJ4UmS3SNY4YNQ5caKW8ZTNW/qafePb37NVq9fiOpRkki6YsTKGzurKtF31yY/bqZMnWnma4RcgymsgVUWa+1sd6iDvpAh4gFZA2Lyt3r6L0fX4k8+4vpkRmsk3hVT82nX/YadOmgjAeWgfHJ6j9ib5IlVEZkMCF2xLW9aeeuY5+9kvf2Ur16x1Zm7DtoghMArZvA3o08s+d+W/2eQTxiIkMtg70B7GTiTpD4JAhSLeEvUfgR8pboZxqRG3GA/uQjotKnqvnzEyF0ddukcrE8d4cTRr5pQDnA4oibUE09oEcJ9qwjW55qT3GWpHgU5YUbvOvn3jjbZ00SJrQZoUkhWAvQUPS9EqMIAu+cD77JIPvg/jU08SQkaPl/R6q8OJgNTWEX1fsbrWbvj2d23+y8uIsiqcRHeiGsE71q0iZT+46UY78rBDHfBSbaTjSlJG/ve3LO8dwkAQEm9VEnR0EgfJWrt2g/3pllsZjR6xlkwWUNIY/tJ57BuAP2L44fapT37Sxo0Z7SpJDKmMWYP6Uk3b6ygIehcr6DIskpgcuhp1K1DvNOKqT/cl+U01W9buHYC/vkvU26/ns9D/0ucgGNJH/yTjUxiebdIduXbddV+1WU8+Z3HcWfKDlzNfoqlhux2I2vDTH//Aeveo5lmZhjtyjwCh/Pyqg5pfEm8kjBFUyjNSLFj8il37pS/bViR4DtCmcUO2tjRbj+oqK08l7KorP2bTTj2F/Et2Q+AKz1V66NsdoX1vnaqj+uHwLDWkUAiGtgrzWZVkk0ICF9zAhglhaNkOOZhRtkMb0lZgvuMf0+23v7/FmlC5ZBymEBjZTCtnBEG2xY464gj793//vNOvyCgVpvioYWoP84YkrTlgZT8jurkmSjoHla45IUrf9/5pHwH4zglR1FDn/wF5Sbrm6cRUutwaMYZkSP7lb/+w3/7hT9bS2hbSAPzDhg+zH3znRquuUOCBjpKKwnUd7QDnd0xuF/LPZNrcCEsCCrnIHnvyWbsBXb+F6GljczOTwEKwI8lo0qdnd7vh+q/ZiEMP9hEDVCmL0iGG1LHjSunGm05RPd50o8OF14/0GiGUrxieE181WjgT8Fu3gpHLWXo2/CrJvBoV5I+33WoPznzEl/xliD4K3FLbBM58LmMVZSk7cfw4+/znPmO9arr7tRToFsOEQ+UKxCo4tDBc3/c/93mASz6o89QdfnCiX93DIcnahovrtZWr7dbbbrNFCxfZgQcdZJ/8+Mdt2EFDLYd0kvatI+qWdmApOzo6j4RPyCUGsBVFve32O+zXv/ujNQNuuSoLeGTKMbrkfhyJOvLFaz6LhBuMzs+zgGPHRMagApBph9JU8s6P9nrs/LZfDdKR/GBG8Wcc/b9IfdxFpxapUVK9uOkMDKE0K1M0mTt/gd3+j3/YfGgiz0iRdGqjKJmjLVLfRJsRww6xj1z+ITtm9FFo0SpDaZD8r2uGfnQBHCK8swfQJkMRXKdwdinlv2UwSR9ECvkt9HQWd8odlqbzWpqbUCVYrAwCc3S4cwnPtQMLMGTp6JgCN3xvZvrtLbfebrf+9XY3wjKlYV7dCrrthAnH29WfuZJIXi9C1zJe827gSoqGIwI4v9oLKd1644lH1LK3O5Sjp+Tk36invEoRwN14xl5pbGyyelSz2rVr7eHHHrNXV6ywl5diN/C0qpcE3BkijynmchdoV4qRq3dND5s0cYK9+8Lz7eADh1qWKHBFeTlkzsMItE+Vo7xQU527AC6SvKPH64doSE1nRY48SXZ1VpzOki7Z0trquqfUDMFBOnNeq5lhAEVH1dHeXY4UdFcBBe+AmKOxpcVu/snP7a4ZDznTSMcvo7ML0stRQc6adoZ97KNXONAr0L/lyswzP0NBKTcqvdUlgDsooqF91+RwAO36drijukYHo40kr/RrgXXNmlpbU7vGVqystRfnzLHa2rW0peBpEgBZNop7PmDyInWVAZyA2btVVaFrj7Rrrv6Mdasss0rUE9VcalwGOoieCY1O2DSIc9ocQC5hE+rcsVJR5fbd8z6toohsOwO5rjuxobXjiQ4KZA8yT/fDEY0Bpet0eoKO1iFPh9xlLZmMXfe1r9sLcxdalimjekLM4DoqhbQwwX9g//5IPXlyWr3zlUChah2h00vg9iu6GNSi6Ofunl3toC7eOuqdBdiqXw7AquQ2gkxyZepwxg5E8N8CrGroaRXogRnfdeEFdsH557qKFcNQ9VEIqSF1ZMdIJNqEjAL1Aq2U6dsNTF7wPvaxzwNc9OoI8ojIDqmo85UIwLqMAQjSm8PRoaP4KmbQ8wqnS73RAosf/hdRvL/9HWMtRYCuzBlFHZsF+ClAIXUnw/DthqqkPhIuhP4pwfMMQCdnr2gARyi3VImdngIsd3rLLyoHeY38UMX5KqBLRVP7tIuA1LF2Twv3ZYRKhVagS16VHAw57JCD7bzzz7HJk0+y3r1qXD0pELBJyu/tQTXVPIKyF+P0Fs1D6TtqGtE+VGr/+NynAR7kbvhs7wYFGKR2eKeoC+S5CO7EN5LcO8j7B+j7D57jLNVDAG8hqPHF675CCP4F4nG42dwQk383gcRDmotRSC+VRADXITUgeCt2dLzfIJ2ueDFvuOX3/4cfYio3Mqm7zlI5NC8nBqIFbGdarlVXVtgxR4+24QcfZFNOPsn69+uLD7uMP00lZsoBdZN3JGoPOYX2SB3jiIDdUajoumgeWqhf+8+xbwPcgSyiR3CmdzoAPMg4zYuQj8Xlt3rCO/t1QIt6C3CGiVJIQbEIUwD++Jfb7Je/+T2T/Znwj34rqSgQy0UpEAmyytl9zC69BTBGCekxukPd/CgxncvC6Fq4s3ufyl6gUr7kl3B9P7gkE9RD1wXc/n1rrKq62oYOHWKTJ02yo0YdAcgxFonuyl+PMo2agicI4GeR6DIi3dgE0O6GpZ1qSmgr2dIcFe109LbrRxAMau/+dnQSwN9ICCeZEyoiUJz5CyLYjiEdYLqYJW2JyJpSq8NBUyJuIL7Dk+s6q7ODdA2lhE+HO8/7mZQuunUWeMlTARAtWC4SgfsLnpOf/OznTMUo94lViTTBHqxPBUA0NhxLVK9/n97WhD6e1DXqKQM2JRXBBZ/qqVyVny5w9idVL/1RixIDRAs0NLFLC3v1lLMv9zv88ud1U7pxOQbv4MGDOJdZjx7d7RDUjv6yCxhlKtJSyWQkyslHuRphPE8++B3VTL8iaup7KDV8i+5Ev3acVbv9++hEgHck7c4IBRAc0FE3RITc0T3ukqXzEGEk4k8nkgkQ+iaGiOEm0zxkffdSPI1/8w4tFVHKPFz3Z7kbA6AZJJxg8Ohjj9s3bvw2+SQwPnN+TqCnJshg2MEHutdhxPBDmJeBsYd/vSydJLJJFJBVMFKElYcLfMpXGLvEm17PUuHox6SiCjEYkoB/qHOJIdRWPapW+LwcfgQhEFSqMGoE9USMLTXLJbvS813eDx1uLCqjrsMp0IkAjygcgSr6HahfZKdHdZQknDrcu7dd4oa0mm8dOl2fO3otAFxpBBie5U+AEsj87Kj2X55GKTVTUCnCH79RRjUnOkT9wljw4kvz7dvf+b6t3biJqB9jg9QVgjma0NWPCUif/+xVdsKxx7iU1MILSWXXZclbw7zX0aWy6qO6S6UIEl13wyFpTptZv6i5Gy7xvWqBBg5un7SEnsw+JDpkVAa9n/q+Sf0RwJH+XQAP5H3DZycB/A2ltP9UT+pPRwn46mxdAyThDtejYR6ghlQdntPtkIF/CkACfKQSBH09yr9UBnfDVFg9zF/psq9KcUmIwQZY0+WV9vKSZfbNb93E+RUCQZpXrumhmprL/izowdde9SmbOnUK86MFcCKZihOVipNOq2goyk2pbiq3dJNEYqOghhGk0sjk4BdT8udMqpxoi09kYqKub6SDCND9KEfArEdVHxmWUri6AO7E2elHJwE8dMeOEtVx0V+4GnfVQteiQ8/wB7jDEM0wzG0XvCVIByksCRg9w1lzkH0WmxILXGGoVor23MlEAArCD9D541xDPUliqLX5fJNyj/xhj9m2hhb7wpf/0xYBdv0WI7SyeKKMgBJy1z586aX2wfe/m6riF2ck0jx2969TRkEg97JLkpprOrx1pbapjVp2x551fN1hi7g0V+3II3g3kPCltnr0kh/hOu3UDSXVv0iCcym67oV2fXTWbMJSrziBI5jpHH1HAqnL1WESgUjIDEEL9xSQxDefUWr5tDh8pl97llJJ9CySjWdhAxJKmqrzS396jN9aDR6GdECEn7vjoSQRo4RSeAT1IodEl3dle2MzPvKf2P0PPcKSLvKXEefuOeqOnv7eiy5kzssV6NV4JtjqOSkFHFtABl+MhdEqt4AbL/jPucYz3HAJ78AUY7JRTlJzq1HAi3EFbaTTU88cbMQi4EKSKcJ+eG07fC999ZPYqevYFQU6SYLvqjhdL0lYpF4Bl5UP05w14UlTRjT7W0O8fNIJwJYo6eEBqAABYOt7cHFJfklPVZ4Cs0LSknrkjXTWihyfNkrUrqgJ5n4EOAvc/qdrypSc4oT3C1RC4XupLMy3YnrpH+2vd9zpU3RlkMZwvcVYbFvJCphvfuXLNmH8KPDJ0jieZ0I7eVR69FDLxGLaUZ7doqgOQNeGorj72IYhh/89UU79+B1TYdqnOMXkrkKGwFIFU1cBeB56JFupVoleXvc3f4Tx4s3Xu64ECnQSwCOJE4CzM2Ln2MEqzmYo6SQLEtgH3Lf8AtCuZrCIQTstSSILHb5Oku/uAvOso07nh9I6dqWqSNLqGsYhe3QkEt0YGZhbkZau2kw19FyQ827olX55bgBaw7uwrmilRodm5lDDYqzDnG6/+PVvfHZhMyNNEgbUvojXX3eNTTphJPp4vW3bsobcFUCptuqao9yAjbN6ppU80qg2kvKMD7RFhif5FrbBYK3W1riV5XdZawTUBxw6xtrayL3IGy6oR95fubAz6kXXRF8RpOvYFQU6GeAqVp2gPx3RmbkTqVab8/wsq9uyioBEmzU3bGTij/RWhnOXWgn81Eg/0CftQN3Y7nFwCa78JBHJUxLa70sHZk53rtyOOXaqde9xCM/2dtAXkbK+AtzzVm7y3oR8Vab4QpO3Al7wjiDNM4Tri0zI0mjy2BNP2TduuBHwl1lLQ7MdO3qUffNrV1n3yjp7YvZtVl+3EvdhE+UnbdKUD1v/gSOoU08YLA2jyZBusObGFba9frlt2bTCNtSutob69UwKo72pSuvWZ6SdfNrlTG1l4TSjUorVSZr77ocq6kd0Lv2E/TTidR27pkAnAlyFvrFDdE3giuF6A9SNG9A1G23l8hdt/ksPWK8erNTBBx1jK6ayMgIxbOiT0bZMsR4sREAVYcKTPAr5HIsd0FvLAWFL23YCMng7JMYBeg49OM8Kn9PO+qRVVBxKWhbTqkyXhpy5L6kfpLnqB4hQbTTUi7GCkaozkpYRRvPFZTiyvN+2bWtgLWgtq/drmIA11KrTW2zBi7+2TbVzKLqNdIwUGKRtVmUXXfRlrg2xuBZLILHXrl4KQ99NNHEJ7dtuFQoYoaNrxCiySmnUsefZgAOmwVC9KYt57FQrT17RQmgfzchJByzBp+wPGLxE4vYgGXfDJaUJR/TNrzuzhBz8Lhd1HwoGGngZMvChCIytzOS1l6oY5r0otQQRZ/2VjuhrKD0YyZJOod4IKkZXL0jpo8TRw5147iSAd6xxIPeO1rlCQFsxKgW6vHajqrNZ9/8Yb8ZafL9ITwFNhpd8u4leNuXMj4Gv3t5xbrxlGwBJxtpYQlbfsNqWv/K81W9cxSKELIxgVt5nINLwM+j0/dGPAbiLai2ILdXFpXioRyA8YG4fOaQeacigQ/BHA/HSYwBAHS4GUwfhxy6Lb7B//Pla614ednqShhUrT1gD2w9PnfRp61YzHlDQRtyLMZg1buutdvkMW/TSbAxMbV4kX7wokbaTT7/CKnqewDpU1Zc9F9HB8wgBV6UcKKKp6q8/MaC0ftQvdP3QqgC2HdhRZUJ6D4SV0OVpSRoNCsEzRXMwkn0kc4DDqKSRbCElthDdgKdGG/x4Nn4iQYfM9FVlu03glYj6WXcEcM4d6K6c98TRSQCnpe2HN730S9fDvbD/CN3Elg9Gxz85k+3C6ldaEoAjiC3OC6ZaANrAoSfa2OP/P2jDPnmuSrDjFf5n2afSZeNIuyJbKy998W5b+dozzBAsWL+h4+zYiR+xttYq1ANeaOV6PA+0S2vJmVCX6OwSXD2GiiH9XwjgtVd+9sp75/AM+WNjem+WxbfYI/d+z1q2LWexM8+C8CygrbdyO++szzOnfBjZyXhGp+d2gna21j9jjz54Gzq8DGLADXgKyZ525kXXIv0PpkTmZ4sZcB8WEzIyYSqAHIBIJiXQqk7BRiEJ95VGV8KhdHK3qs24JBVUitrrSbhfShsBXZh0/PJFdwtyAojJdR2GlVtXm6WqfDGCSg110Tf+0RYdYX8UXSOf9rqSD79joqvcolwPdfNHOvWjkwAeuNeJIEL4n9oRiKBvWs1dBCkJ9yWvtXtuv553v2w3bE46nqme/GtjBf3oY95tg4aexjBe6c/k2PARTQUaKQDTjHAsKwH+FXvw7u/BBI02evT7beihU/mORwId2iUHHefSBabQWR3qnQAwJA0VdYyL2VyFKYFFHay0qnCp7knqndFeiNKr8xiI2+bbU4/83bLN23AV5tlH2+ygo0+x0SMvYtTpxZ6KAlmFq1CJ2Fp7/vFf2Zb1L7OKHRAj2duoSH8Y8ugJH6K+PQER9SAP7SygeTIBmJLWop0+pZhIpdKf9p5if0C+vfkQiALttQ1HaAM5+DW1S0fIL3wXE9Fu/ZFG4NboJuAK4BoFQjmBJj7C8XzIT0wRynCVSUwS0Zc8dFfFxqQaCuCM3EWNbHvg6ByAixgl4oqI4YjOoTP0JsBEnNfRFZot37rIHpjxfYb8ZjZ2hCAMl6mKhNWhvZx/4dUM8SN9a98U+qzcZ1pVnmQoLxSbfDuHJLpqPL/Gnn/697aydoGdf85/WrJiIM+Vu18bNgpSGaoHYoeOCZ0Qhnq/LvDrYunQKENX86fekXRCb8Zvre0tBIDW1joktzwh623h3CdZ9lVvI0Yeaf0OmcTmlDUamElLZjBjLNdEnV+z6X//lpUnmi3Vyiw/2tkKM0+Z9nEr7zGe3+p8tmJA4kslKLKVsSAY/pQRIOTTpzDAjPLKsPbIr4kRA61LdAaYek4VF8OUrpYAqV8CHs8IgMEQ8LSe0tut5wNoRTUdYhQI6c9EZYXIMffpc6WXJ0lHUKHIwx+FaVWe6K88uOuqoafs3I/OATiAiggQzmpEROJALHW+yJGKNdiaVx+wBXPv5HUYraxUJ8YnGrKhZrp6iE069VNoGIN8cYJUYDZGgdw8iwuuiP6eS8gIZOoogZKNtc/ZS/Nm2mlTP4v0VGRShMQYoxN9xh0+aB/6UYMEXhmQvgefIx1wSWrKJy8LT0YrVVXwScvbHOSUk/Shmm4kDXzFXiEoFSBI9kQh20R+lFvogUcGnT2JT51/GpoJHVlD3TM2e+ZvcQMyWYvMtcloPtUN9eTLeIwOpGmqF9FRVAotRtBvAVH/YvjRC4TulVeCUSmnOTKoRQXa75FMaC566tA88ZSMdFyTak9cbkfo4PvD8KwA65O3NJ9cgFXryFdzy93gJhvfcgIBJInuowqKeIz07oUVYfSUPysmUMfwkEt/7X7lHUiZCCPFI2hHwbd9I3IMPbVpp6dVJp18dBLARQD9BeKFs1oSCKNv6vgkIEkUN9msB35iLbjPCLM4ATX4ZiHWkXgWhh5yJlKYHdfp4GKcDgN3KfTDIn5tSSgFvdk9HOM0aY3ba239xsU2XBJU7j0Hqdx8dCD0j2t7X3bBcRUHA1I6ts8dkSoAqBJsXVYoaPUOOj45q9NkBMaIbMqrICkUB1js1Qzj6HnWQJJfGdNrc3h2tCI9L7WLSVpquQI9YmPB23IbbfXye23R3PtQV7RaiCVnpCnvdoBNPPnTBIgOhCICJ4YlEjxNRLOQZ1+XOHo4Ut2HdeHGI7KKuEIlGpKXuiRwyssEA2ibO2rBP3KnHTEYwBvvTAy4aE9Cq5fULm+hpCoZk5d2KlSbJEA0wYzM+cY/RhrdkX9Iqrbo7vPlRWORSX9+lU/uK2hXYIgW85elCXApBuDrPJ1V3W1KBnqo049OBLjqHjUiOouk4U8Bj4ShYrS9YtPv+KFV0IlpAKKUWaiYzVfYpNM/ZVU9j6IzUxBIKgkuQeheyDXjDqy1hx962s444z0QvhrGwD/dutXSZZJ2qDLstiTJpm7ULqg+I4/ekLQtFvDCeBhckJLag2Qv62ZtTfWWrqAG6Pb0Oh0MUGPkw1+WqKP80uV0lG/0zq5OVkSdEON51JK8xCg8k0dKKSgF6jwPhfFjts4ef+jH1rD5VUYb8gaPzdw++pgLbOiwc2AQjGGCS15fWdBI8FiuhnY3UUeCQrxeRLTTyFCMMUogkX36AMD2EU3lyaPCs1LxNFNSsyG1yWaeCKmPTGI80vlMSOCs+mlhBB9O93iqO/Vgvg0M29q0CSYD0IoAM8pkWlPELsJuvxoNxGiKG2iBsr+6hDLUp6JzlmBYmd5CrZEQG4tCnS6xRA/KqfIRJuajE03q5KOTAN6x1oKsDgFbh4Yy/ODyOuS32KZ1T9jTBErKkQ5ym0kCZDX2J/riy74WPbovjwB4AiZJOlvmZzG33WY88DP29Bhnww6dwv0+dAwb/JRlIR5DYhrPSra364xaWIucpXhtKcGZCGK2da3NmTvbVq1aZTU9B9vYsadYTZ8hpGFOTNsWa9i+nrKStmFjox1w4CjA1YOOxiODypFMNWAnyHDdzl+9Fdg0aMnShYwca2zb1gabcurFVtlrLNIcqNLhMoZjbD6Ua11s92IEVydhHiRbXt4V1Kwzz/si5R5Au9V20QqmBMwx9gSMMZo0N6yxDeuX2VoCQ1s2N1u/fiNs/ISzUeF44wVGW0rSG50+07oO5kZqo/7IE1QowPSpfgwJvN0ImhQAv2geYxTM5eqZZIYLtG2zrV+33JYuWWib6jJ24kkX2uAhR7OWU3TaYnNeuMe2bFlrw0ccb4cOnwRT9YBZaDtjUhzp7Zsw8TOmNx2jWvnol24j6LXG1q1ZZmtWvkz965zJhg8fa8MOm8T3/rQTBo1gIUh04tHJAA+glnERjBGNZVzjv7g+Edtq85+/BR38aQAOMLkrp2EBCdiv71gbM/GjLsm1skav8I4X6yxWtsaee/xe27B1hZ025UMsxRoFgHnrAOAIQBbF6dB8OeklsfkuachoYfnl9tJzM2x1LXuGoI707X8wK2R62fJlK+1stoaYPes+a26qdTtAG/8UEv1s2jmXWWX1cDCJpErW2+Oz/2YtdRuR5BuIOtJ5dBTYoc+pX7rKpl34Oco7kHrr7QdST2TittmKpbfakkX3okrBaOhLYuLyHtgYp32etICRait0s2zxHFu5CndnYSvbcbMVRJagjwxOaFaMVyLxL7KhB52OuYCxKwZCwsZz6+1R1Lxi2yaX1JCKXXDLbdKkS23AoPHUD5WF0SGTr7f5Lz5o9esXAvzN6P31FIqUhehtvIvngvOvosq9CI6tswfv/zVptvMdVSjW3U4/8wpL9zyc+rAPIW2Ko2JJfWNZNkxcS3+usiXz5jptW6Fdz5retq1+NUy6hSJgaKZMpKsPsKnTPoo9GkAO1Tr96BSAizlL0A5n9Q4Syk013eDPp5nm2ahmxvcs37SWbZChp2btpVFc2FPv7HMvt3jlYYBEK2boBMC6feNyW7x4hm3ash5VOmXnnP1ZQHUIHY1ODO9oaPYyKE+TrIroy5oIxY4fMMhq/M8/sWzLVtIbuv04Gz3uXGkVNu/ZmZZrYTRZu4wOQwenishPgjYH2tSzCTIlDkJNkppRh5RebtvXL7KXF0xHYgI86orZh3TTSN7fTpl2DXXWi5uQdrQ5LfUku8nmPf9jpNpcwYF/6NBcH3TQCdgZl3qgx+fiMG+lsW6Vbd8+zxYufNSS2W0wJaMGKoFsiBZUqdPO+gweprHkD6MQ5s8TFCo0LbNH7vkRrsdm8oaOTAhrwrCcdvbV1HE4ICMd9MgA6Lr1L1ndqmdtzfK5SHFsEB5IYLgXKgfbGWdeyejUZk8/+XvbvvVVaVFI2gKuzKSNG/+v1nfo8dSjB1dlWDIiyJiBeTeunWUvPneXNdc3Wt9+B9qxx11glT0HMBIutFkP/d4qGUW1/LCZOp102hXM1TmaflKEufOPTgF4BG9Q6QRXM/TNRyUNxfyOo5s1b59jsx78Ke/cwXOgtwpwTxtFpiorbcRhx9N5vF23pYmATaNtXIc04yVUBY98xq1b72E2edqVhL6rkGKy9tUdknRAE4T6mkokHI44dOuV9uhDv0F338gcD7Tuiv426cxPkmgAjNFM3k/RQdMZ3eutio1T9Ua3IoDo1nuMTTjlEjq5H3/yXqAe4SlJJrbYrOnXM0ecSWIqE/6T16bv0OPs6OOvcCbL4YMXs8nrkozX2kzS55GwksYy9PTmuBOQsN37nQj4SItk1xY8Md4cHEussadm/9Ea1r3mzCY9V4NEZc+hduLUT/PtAMAqg49RJb7VXpk/3Va8PNPSGJyuolUxetHGKWdcSw364N2B+hgvOdpaxlujmzY8b4/e/0f2JMRVqcAabRs4bIodNXqKvfLybFu2cCY2UahPlpFJL1CfcMLHrffAcdA3CBwJDjH8qqUzbc6cmVbObrttvObxvIuuREgdgfqj+i0iNnGzpdHJZQ81o7dPnHqZ9ehzHOP1/xKAC3T+B3gluQLQ2VCdgMzLC/5kry5+2CqQEhopRexEdRIJLhdXCGCgqvKcdMJWJmXxNJJa75M5ddonGeJHwwTagUqGn3zG3CS8zZ5OMIvC2E0wwHp74pE/WFMd0cbKOKH9nJ12xketutd4gIR+n29k8tNMe3LWH3hNNTkANAGqhfnYp7p/mg314zXUjSEe6VYhI7Z1lT1099d9ToyGjjJ2h2psJTx/zicsgXRNynNAraU+JDFOM43P2oP33szG8rzzs1WGIDZIj742FQDG0gfQXiYIs8aT6YoY2nhniqvsicd+am0ba2Eqmo76lYVrDxo+0Q4bfTHt74EbUG3G2Zh/1WbccZMlGCUSjHSp8qQ1oKOMP+kC69NfujojCeST/eGGZjqDofusPYG7Mq0ZndCpIZOwcy/GFsAVOP32n5jh36+kTG2XUaxAuUOdO++ibzDqDMEWApro78W2Wnv20Vts64bFjBI8kq+0s9/1GUa9QYzEPRh1MvbKoluc8coYhTL0bS5dYZOnXonnaBT9xkN74Oh0CU73gFBALpxDTA8I8D1lm+yxR26ylu0rmQoNcCVJuA+2MUYm2qEjxrKol2eRdlkmVK187UVbtXI+lj3ALauwU8/9Gh0yGKkkT4CkP1JQPiukrOaroLZT5Dp7+rHf29a1C6wSDsqSVw8k//iJVyI1e8vWYxhutbrND9kzj/852AEgSnPBDWCcfiGdbgPBHUMxjKTIYz5Xa80M808/8ivATnvgOKDD/G7mzJz1aXT7Q6kHfmfKk9GVwtPw0gs/tw2rn8epgMqkTiVCW3PAUTZ23MdgZCRZKgSk9CaFAq8qT1dusxm3f8XKWrbDbHKZ8lIoRqiJp3yIUWUCtgF1wbYoZnBrNj5lMx/4KSoeBibt9/cbkf9Z5xM/iB3Db/LEGE3jMtT9PIJlxWsP2OKX7rQqjIeCbItuve2Usz9qTz/zgG3dtMpOnnASc2ZeQ59+GbWozfoOGWPjT7wCUNYgANrIa5PNf+4220CfJBEIcqFW9R9pY064iik6Fdg9MHZ+s91zxw1MSdjsahkyCBWlB/W6DoEx0G0KkaKzjz0KcAUXpGfLxxovvmb3T7+RTqJDkXaIF5d6OVSDUxmGy3seDHCR4gp6yAtbULTwVmYeLrSafn0Y3r+EHi5jRVv2cF9KqsNH8yaE7m0Ad7Y9/fQtgAwXpAw7XILjTnqP9ex/BqoQXhnqk8jCPK/81RbPv9/BKF1aBlmf/kciBT8COPBWSNVUaIZzPL7a5s3+k9WtnQPfooSg8sioG3TgkTZ6/Ifp7EFEOPFHp5kHLqnZVmcz770BvWeTjAzfKas5E7cxJ19sA/qdRs0xFvGmeCCKX0kAuH3Tizbr0Z/zPkokJWUW0HUzxe427dxrUD0OQxoCZPTtCiTrphW32dwXp2MHyE5hdIOJy9B/p5z+aUTLCACutxdrqZ08LHKhNpD3z6x56zwALq9R3GqGHmxjJ5xsd02/106YeCaemqNcF3/m2btgiCwbCZ1vZZUwrtQWDO2Vyx+1hc/jz+eNa9plN4uFPOk8bInU0bRmkKV43ffWDbNt9sO/te5VqEEIIb0G8rhJ/2L9Bp3MKIBbFsbbE0cnATyqetQIKO8aKaqIvB2MmXUbZ9qzT96GEYYYZdiTVd4CyLv3OdAmn/IFOrY3eqYkJIoN+hthHHTJxXbnnTfbEUeOsWHDP4ibrR+EAnTog5Kkeq9PIcf7NOk4y6+yRx78Ie6zlfid6VtUjGaMtPMu/gzD/QjgUIFERdIXNtu8F35pW9bOxe/MUEpNs/iORx5xgR16xJmoJUhL9FefYUh9Ugk8Fvd804pN62kREhHwKcR+9JjzbfDBFzFUV+OOo7WoR2wsQZ3W2n2E52PMgNTrDuV5aGW++mnvuoa8DoAhALhcKLQzgYsvQX2emvU7q9s03ypVAiRshXz9Bo+BOf8NwMltqtghqhg2xdzZP7aNuBHln9e03sZszA4cPgFm+xAjVA0jiVQeVjbRrjjfcy3L7d67vodk3eojp1yNI8aMsy3btqD2HGxHHfseGKgalzz9lGMfGI2+CJpioTt0QH9vfJqR9w+8vQz7g36RR6VmwOF23MlMbmPmZxkGazGz1GbNJHjXKK8OTSOGMeTQiXbU2PcAdkYsSQWe3RNHpwA8mJH6lFQNv3wjes27VMgWWf3MY9+3OulvEFCGmjoyjx7ad+BJdsy4y13aKoKm0LHroeinKYy7u+78lp126nsxuI5hYUMF9wAHw6b83FoWVsjJGCT8/9p9tvDFu9D1Cchw4HOwYUecZIcwCSqLb10RzDTUj2Vfs1nMCMw2b3QQ5ABhBnfctGlfwlsxCJDAMAQt/K0J6MGFtldt1n1ftxR7o8AzAIqRB/Xo/As+h+pxFF4dNpBHr48zdTeOlN268WF76lH8/KgsYne1Nl011Cae/QWoQ31RZzTvWk2VPZCwWtST7wDABt31aQsgz0Yf+z7rO3gK7ahiFIDhMnW2Ye3DNufx25kPr9ZRRzJpzjMCTmPqbTUej4QMXQWkGKlQa3KZzUSMX7CnZv7OVRrZAq0EjiaffobNfORpO/f8z/LMMKY/aN9GGJT7caKqHl6n62KFjdgGP7KGrUt58zEjFzPLCujVxxz/bus/6FTC++j65RuYGfpzq9+2mhESd2VzAkHB5LPj3sX8fwJ2zK+JNilSv3T20UkAhxoObKiAhS5eRZNESCmAATAIaz9453UAbDsEVMcruEz/MlQfg17aexB6ZhrZ4G/OxQIHvCmWghXRxR96+GbmmnyIPiPyCASSgFFusBg6qMxYxCHSZqXNvP+7BBo3WhnDeZHhsAXwn3Uec1TSJ1izh7mbMLIa8Qk/jl/9b1bO8FtAl88wkpT3HMhmlf8JYJGhCtS4wGH0gTFfffkue3UR6fH6FNlVSu8Iqug21E45/RO0dTCtJLE+sQUQl0i7/2tNW1daJd4IeTiKeBLGHHuO9TroA0hUfPOSaIqAagQqbMcmmWePPfgLjFNNGfDmYPCmcQ9eZeXdR6OuIPG5F8tuwW//HctsW4vaIGkrlyGAxBY47cJr4fmDUX2EylKNiAynktts5cu32ZLn78egxmMFgMtraqxbT1S94kAbPfZ9MFt/tEJ6LIH+r8dlI9A/RQJUuabF9sDdP0I10uhEK5FKbYkqO/P8S7EVEBrNjTZ79h2sWmJeP6xVnq62CZPeZRUs4cvG6CeuplhGqNetaxTaE0enAFxE9bfeaihCTvnqEIVtUU3kJWhsfMlmYxjJio8JKNJlIXguWWlnTGM4Tw+kcxiCAat7zyXF0ZnzuJu2bXvV+vRBHxQJJfaQQL7KB+YBDgzzMdZHPmFPPvobn6lYzm+pADkZjWd9AVtxBFKLTofRkvmVSNdfIJFWIDElWxni4ZFDjzid6N3F4I5JUzIiUR38Dcu5bfbQ9G/BlICK5mjUaYYJRx1zNmrBaaTDCAOslEb7UQcI1Nw3/ZtIy2bKE6MJ+uV2BmAtVh5B+xTmR6KzSCKHhyZBSH7l0un2ysKHmEaC7570si1yqGtnvvtqJmZhVKOClAOwRfP+bq+8hjuP9ZwIdEYApDcGY5+hozCiL8MwliGne/KeiMZM2U1ttOdn/djq1zFygq82rvce3Nc2bkrYGed+jvR9ADYjisqFllIl/BWBUrWSjTb3qd/ahlXPo7YAUJ7Xe0wrawZade+hVlfXgFpFUAf7ZfCQoTZowEE2mOhlsa2aPPv4WycqKujDVtkViDQNZ3vg6BSAazJ7HOLEQYAijOoof4Mav8vQTZct+b0tW/A4xqWkFmlk3bMes1f/4QQJvoA0JyyuIAYSTwzi1JQuKKpyyP8rNZtvlCN3nEBAtAz1R97wpQv+AFBmM1MRrwVZZNALK3odapPO+BxSBw8Hw2SS8TTT+Ax6+i9hCqQl0ltbPNRD+AmTPkbA4hj07+6WZJP4LG8g03sjre01u+/uG91gS1MXvbuzDeCcQnSusuZIpGs36syKSuqiFUfbNj0No/0KMIUNgjLq2FQNAZjrsFlJq+kELLeTnpznLXLuX7/3u5ZtZHhn5HG6Ufd+Q060o0/8IFKwG21imm7dyzb78V/CLHVWLrcjQkLbbzSjno0+/kIbMmya69HaZi6BHiVDU6LCCq/YQ0xLLhLsKgK0OMZJnI06a3ofa8cwHx2HJySVZYHSSFBGo5cizizWo66b7eG7b6Jdm6gnzAqdcUqiKh5IPv2td79BVllRbYMGjaBNCgbpRbMKuFU5TbSbgF5spekCeUbQ/Rrg9CINFPwgBAQqCGUab2lwurje7r/nBoT8ZoZA7gMShy7TO48ed5H1G3gh6UUYJDodx4P8eQoypCOVMd0l48UPKCWLXAyUB1RlgPqxmQRhCBOjScJARADJY8ChLCoYewkwRZIRGIqjwz56P0N80yp0TdQk8iGabC242M694D/oiH7ox5rvIZZB/4cx6zc/ZU8CLOVLP/lihoxcXxdcjeA7ABWBWY2oTAXeWJbA8F266Pe2fPEjtBnQkL6Iv7x7nyNswsRPI83p8KImWLEJP7u+VrDHYRsqwIMzbsLwZc0mLU0wqjVAOnlPEuVH035o2bwSkP7Ojp8wyJ54ZjbqAmTVXoqAOY8aN+083IPpEa5/U02ypw2oG0kmszXVP0lI/9eMIVmrJGLcyHbKOdSwU09j/WoPRhTNdVc9vedgCUZNXUjFtjEtAVtlxg9hXgJRGtXoNwmLyadfYt36jUW9Q5VjMQghUfoBxuGr9yx01QxLvTXaR1o55WmHT80tdWFnnjpFgvsEf0AhQGoYL8g3La0NgOebXrQH7vmBVZejngBwAVa+WxlHU8/4PLP5xmCoMYyJ0pIk7a3Xt+iXnpLGjUT0q5izMJDenZNkvsp9069xK1+qpIgq/fuI8efYAUPPQbCwMojZhGuXP4OUvxcpvgl6a3opMGYP7V6Dh9lxx/0bD8p5WQX4ELZs+2C5Onvp6T/ZutqnXCWQJ0gelL4Dj7Zjj8c9GJeXAa86c6lSFEy4BUb+Elyw1aO0WgHUhPvy1LMvt6pu2BhiXunTkvbYKegotnnDE0Qwf229KmF8YgCScs28XvvMc79KOwZSn0324hN/syr2VImx+unV5S9TF8CDRNVeit16Hkrk9XLyJUKLuzXP4pE4OnQBYSEpvASGe3XhLCPeRXGUW8nLc3uN5JlPwMyyNwjjSq2UOiUQYi+oA5MAvAnmm0WwKolvH/ECfRKoemk75cwP45s/njdlsBNAGTshwGwaCf3V37Qv16IpyYxO5YyYKpOFKlqxJfm/J45OAbjgB8IgA247/UEwrYRJ4oZbv/KvNveFO/EqYHBKDANArR5vI4hw1jnfACgDGOrreEr6qQxU5UY6/1NyfvNTfmO6VsKcIQ+JSociViyWWW33Tr8WVQgPM6DKMldEbr8xx78HH+yZPF/gFdYL7elZt9sRw7rZskULyQJfLSVkkMDjJ77f+vbFI2AbbPXatTb0oFGMAlj/mVV2313fgYGYRUj6JIpvE16EyVMuZ3HxOOqc4105T9qxY6dQyTK8J3OYJUn0EuYOahISuaqvnYqEzReZiLR5ja1d12wjRx0jOQAr1+Pn/5utenU2oxCdj0akGYep3iMwYJlWwHTUhfMfZPbfq8QJptrM+/5qBebPIEaJVmLAMtty9GhclSMn8urDBtta32KDBx6O5ES6G8zH3i2z77+e9aOrUERk8DLHBPqMPuZfcW9OQZJDVxm8io5iJ5nm3lOrGBHdRLyObaUB+Iwf8SyUkmAC4E3cm3zGJVbZYwLyoA9VwezHW1Qk1qHVT3lGiBTTAea8+JgNOWiI9UZX18QtzaF3hwCU7OyjkwBOA5Eq0sG0wqWgiUHAKI6R9sLT38UYWcacDoZ9jD9tcJmH0EMOOQ4f7Md9e4hEmv1FiJ5owbDvYOUgF9A7HhHoua5bOomw+fV2z92ftwpAQt/6gclrgw840o48/mJ8s/X22OMz7IhD+9nLLz0DivA9S6fk+Qz+aRmAiYqRNncBrzVB3RhzzPmoHEkmEs0m5P9jOljz2L2PAXW1Tb2AyVVMI124+Alraam38SzS0KZDq1+dYS/PuRsvjjacZ0YMmO3R9zAbP+VS0Byzh+7/sx155Nk2YCDTceUBitUyX5wADKqVVBqMCmuFeYeNPN4Owa89f8HzLMdbA0Ody34v1Xbfnf9lFRmm7uofTJ9hgfXJp37AKnr3sUcef9AOP+IEG9R/vLdfHpoY/vWHp9+Am3MLfcFBHVrRsydP+Q9L9xjkRr7JYyIbBTWvmGgRjlG12NcFtaSldSkM8gNUHuil5yF/jlHuwBGTbMSoi2HaXtQDkSZawnTi0FxujT3LlFsJo4knvpdr8uHj/HT9Up3W+UenAJzWAnAkMKRQpDGFy08uvrbti+yhB2+2SobYHMMnWCENujbgH3/Cufh5zwZUeC64FcNY85XX7e6kEoqdJhG49bQMIqlCmn6rEhvs3juZ49HWQA+EJVZp9Hst4M0ByDpWGQwdih48/iib/jf0UYw8FRinw7Wpz6Sp59iq2lZ7bfU6O20aw32yP0N9s9WuuNMWzbmDUUhDsMYOPM9Mj5105getdn2DzV+0gBmQ/0rnDqDym2Dk39jm1Qs8OsoARdkw8UFH2mGjzuBFs09Z7z7dbNTR72JiV0/3Y1thKf7v7+FflsELvaAhfMJEM7LDxdaKCnf8Se+yAQePx25YYQ/ceRPbChGYIm8FeLQfzMn4sxcs3oDHosZOmvxe9OLuPExAi3B5MbPcZvz9u1aV0jxJ7BXqU2C++NSziLLisJacl/4s+0k9UmQlkaR0mM/ehM+71h7DZolhu8jQVZvkv29k5Jhw0rutF56tOFMOfJEJ0n/9hiX2xBOzrLq6j50+9WLoi1eHLTxyGM1kS2kl6dPJGO8UgBcknVPVAEaczJCO0VTMb7PnnvgzE5uQ3ljTaSx4Wf/S8bAobcDQI+2o4y6Gw/tCpN4Mb7qMboz+5nqIEyLi+g4Ap2MlEIoEVjB70HezNo/NeDasYDookkidKaLLpZhnNElUDbDTT7scfzMz/PCglKNayFWp1+5lyD7Jqz4yOfTe0y+zsqrRSDnagptv9bL7mO98L+qK2JE8Yc4YjJOJMZe7bLBNnHyBVVcdjM6Jh6Z6vc1+6OfWtPkVnlVCeBkpK53VcPkNGcI8lOOnUCdm+qGatTKvvLpqi9395xsAOHP3ULnU0jiepTbiNDmM0XETz7H+B5/CgFNO3efbkw//yMohkqjcgnPxAAALyUlEQVSTxtNTz5ueC0jUHj3YIevUj3K1J1KYNqNXx7Pr7LVld+PDf4RRrTVIUN4Cfchhk5nz8y+MRBJEPIIq5u5d6izh4iuhwGFSgMZVuPDFvzCv/Qk2LdIUZHmtkNN6EGDLMxVHZ8/jY8wyMS4LnQ5CvRt33PtherUThoJucUbFIvdkaO6Jo1MArvnXOYZ1rSdcu26eNW6rtXUrFyK1VyENGeLk5kMxFUjke9Z6vVbC6P0OGMk8kRG8WXiEDeg/ANVBbisGVKc+IuN1h8Q8EpshVMukcpI4SeYok8/2zU/i374FoNSjC2rY1JscmB9SPcgmnvovrBMcYdvrFthzT/2K4EUdoXzJLBmjuNVSfeyUU95vVZUjqBzGmhzemUZr3PQ8cyt+ib6Ly4/ytE+IrM084emTTvmIVVQhwfDAyDuQJ4K5eB6AWvgAEozNiDCu8mJEIosDmZQ09thLYA7NcUGNKuvhNCg0r7AXnvwdC6fnMUIAcBhCrzUsIzI6csw0G3rEJKYOl6N64UuuX2QP3/89BC9gRdoXBGSG/jJm8k2e/H+IwB7Es9CHucHZQjerRMDcP+NrtHUNNgSjHvZKI+icMu1fMEwnAzwZ1BoNnaROZf1SgEy0V2xBO/Umk+uIUv4G+2GJT96iipQr2sGMgLuAG0ouxnRFjY0afbINOuQEuJP9bFDstK4VMeOjrWwvlbcnjk4BOLIKECetfvsGW7rsOSJaSMeWOkLMbLkmyxwDEhPHJWsCKmmX2QySvKh50czASMT72ZgxYyAGlr1HM0UKkb/jEQgUtiGgH1yPBowCMkPyembvLVvyBEumtvFum+42YPBhdvioyYi7gYwOlT5sz3nhdvYoYXVPW7NVduthPfoN5yVOU5AyLPVCLcihJvmOrwAowcqUV5fez4tXn0OtYHO2ym7sPzjURhx+CoAZDqjxVjA0xxQEQVIXsrW2cN4MW79+noO1ultfGwoDH3gIIfTsEHc/ElOB8ehs2p6ONzJdYJnNncNqpQ2v+VuHe/U7wkaOHEek9GBcnagPuBaTeG9SiQZb8tI9rPyZxyziBure0/oOGG6HUZd4ehDeCubYEEtvVfAItQydxl5eNB2puw3GBGaKOBH+P4Q59+n0wbQV74mPGsGrJSoja7lOnwBGxyJ1TNhWemETK6CetE3QraWZyKuXwbuCKroxjZZ6DBzui0kMQ1pL/XxxNAJMc3B0+BpP6rBfG5mSmsHXKc1O4XnOkigCqdxQkllIOt93xK+r6aKxmi1OR2ojIaU3i8hvdUR31SHeKXz6aiGfg4HPjiCO71SFG6+A/ofi7EOrIpMJbY2mpWwwpJiuWKgp5cH8RDEckku71cqQC12uPRHr+M7oo/IwyDAdyVcSCq8B6pTa5EEujSixRoDPvBRhBXDGUGeK0nOZeptFIgbmVJulRjHswyBx7WalZ3HgZzMwu+aQEMBRvb0+iACt1tf8bk15sGw9qhwAJWSueuR9RJMPW2CVqsMfdSsSWfV+QN7KhgDPlIqwwdDUWel0ZVeHgC6BrsCP1nXiwORPZ55T18rjRd/GEuwHozoIxOjoHpQTHkIizjqiXgu/OvOzcyS4Aj1qk/Qs17V05oIkhzdODaRbHfNK6IkhHkTS0C8DTgCSNS+J+BaHwKFDMiEAHEkjQImxcK0hLvkh8Clgg8tSDMZvfw5Aajcrza2WwNLCCffaqJ54ePRd4BYzqoPVBEU8nXk12w6GUXDEGZJ2ahN7gUheZ3/jA52cl+vSm0uLQLqGfbk1UfwDPQQKygsAUjka8PE6ERTSm43jDuxQZ61ScgZS9Ip2FfgLOr7qSpuY6qDgb6BIBHDS0hYBTCAX0aX+CHMyyXGSc0dBGEcp6XZ9KC6gBRJF6KbdegvQV3EG9ZX78qErbAmRVAM1GpXFga48dS3ULNzTtc4/OgXgIZIpoOoQ4aIjaqB+890ZWZ0W7gvwPi2VGyKag0BAeIvDgUpe5AIzkBFgCb5ySVIVoTJd++O6OgCiAyq39rkuFUmvBdT8GVn2ysfXdvqQqjyVt0DKdcAQY9KSACjntqJzYehVKdRTWzuUAI5iTKfLaAvMqlXtBcrQQghJ5yKuU9VOINCoJgWAwrxslaUNc3yqq0aSKJ23T0ClFWoqZWrmi9rtfIexGN7fqfaUAA6Spf8r+KLnRFmVGqiib1IRqYVo4Fc57eKIRjPPh/ReT+cLAZw2uHuEdlG2GMj7kLxEwXBEZ5W7Z45OAXhQPdQYNUSACxIqgD00UkNoaLp+R9dITydHz7k05ddbHQHA4bGQC98FcgeOCK/yARbBC3lK+EF24b6GUM2D8S3FuCyJ6M/RUS6xSanOEXuoKXpSPedTA7AbfPMc2RR0rraT0w5OoXNLzO1A9KccDCrf9yuBHpoq6/RoB5azFnUIcBDzaJakk4OUyiVqX8TAuubMqnaJT6iT6ub11TNc9zRUX5sRRWWrbX542eqHnR9OA6dXuI8pTzv0rHJVn1IW90U/0VXp8bbyW3UN7Qmt2Xn+e+JqpwBc2w57EwGXUz5Ao9SeSF1h2NR9J9hOmgrRREbl81bHjlSkk+Tw9KEDgr4vMFOmJCxlSSKHPHVWutBBrg9THx8FuLrjiNLzlPRPmCUcApKktJCldiovpdWn2kVaJL32RgmHAIC0ReJKX/WXTzmTix76U907HqoXUt0PgSWqh76FeutWVGKgY/ilu1GdwpYdO+oQrisBh5cv5uU5b0O4vOvPqFzOXpSXtIOm5OPR6V1nsMfvdA7AnXC0xcVPB6K0d5LaKVBER+iY6Fc46zld39m9jikFMH47cAWUSGaEch2ALt743d6hAlMkuaJ04Uyijpm/qXxvkqdQOnWofoQ6hicZ8ilvByA71j+UIYC+7n5EL7+q9iid8lAdlVp5vD4fXfW6whyvv6Ok4Xm/z3cxZXt6z03l6xC4NYKJZhEz+Y2dfoRnOt4q1cvrX/ruTBz1bcea6bk359Axt8743jkAj4jvNVYjSw1zwpe+u2SLQBY1LSJARJjod3R/Z+eOaUpEbk9Wuif9sJ2hAHd7h5SwQHpPGQ3db3y+/bfA1xEIlOd5SbfdUefwTWnV0cpZf7oaALXjzKXoaE9beka00kJhATRK0+HsZYi79MUT8BEuli603+B2oHMEck/mqfQtXA2f/HyrgzqG2vCcc3Z4vlRw6UlGQa9QdK9jhqpo1Brd7/yjUwAepCaVdyJ0BLE6odSBDvCokaVGOwNEz72ebLsmRcc8IL//jIgYPaWL+tN1zlFxpdsq1gHqz5Yutp/emJdu6Fq4HklZ/+31V2ZSCZSjQF56vgSISBrvAFSUj/KNjlAR37mqBCrXc73MoGaJSSV35ZJ8XdmehdKI7morJZFHx6Z5lfiISg5qTCl9VIWdniOGVW4hfZRLe7+qVqW2Bpp3zEgllujxuhp1TPPOfu8cgLc3IiKaCBI1jrMo7O0sXW+nvl8kbbgQsNF+cxct574e88S7AHhJyoYMojKiUnaRbfvlHen9Cc+La6Fy7S31Sjjz8qAD/M3578ipBH6V4bQQCP0Hz+qL6FYqgvvBYN7xtNK0G74qs9R2fyg8ySXlwR9p5ckJVAyfIV2Un2hGfSKG2JHJTr5FzyifKK/oGtLd84nuReeO2ShtlD56vuP9d/57pwD8na9mV45dFNg9CnQBfPfo1vXUfkKBLoDvJx3VVc3do0AXwHePbl1P7ScU6AL4ftJRXdXcPQp0AXz36Nb11H5CgS6A7ycd1VXN3aNAF8B3j25dT+0nFOgC+H7SUV3V3D0KdAF89+jW9dR+QoEugO8nHdVVzd2jQBfAd49uXU/tJxToAvh+0lFd1dw9CnQBfPfo1vXUfkKBLoDvJx3VVc3do0AXwHePbl1P7ScU6AL4ftJRXdXcPQp0AXz36Nb11H5CgS6A7ycd1VXN3aNAF8B3j25dT+0nFOgC+H7SUV3V3D0KdAF89+jW9dR+QoEugO8nHdVVzd2jQBfAd49uXU/tJxToAvh+0lFd1dw9Cvz/TAzPKOq8qGEAAAAASUVORK5CYII=;" vertex="1" parent="1">
          <mxGeometry x="460" y="282.5" width="61.02" height="65" as="geometry" />
        </mxCell>
        <mxCell id="Fw73sAZrg3cBjoxB2AiI-20" value="" style="shape=image;verticalLabelPosition=bottom;labelBackgroundColor=default;verticalAlign=top;aspect=fixed;imageAspect=0;image=data:image/png,iVBORw0KGgoAAAANSUhEUgAAAOEAAADhCAMAAAAJbSJIAAAAgVBMVEX///8AAADw8PDMzMz09PT6+vrU1NT29vb8/PzJycnc3Nzp6embm5vi4uLNzc2VlZURERF7e3uwsLCfn59BQUFcXFyGhoaqqqq+vr41NTWPj48qKipsbGwhISEUFBRiYmJPT08xMTGBgYHAwMA+Pj5VVVVmZmZzc3MbGxsjIyNISEhy5a+QAAAQKklEQVR4nNVdaUMqOwwFLpvggqiAgl5RXP//D3wUhOk057TpMvju+ahDZzJpk5M0zbRaKehcTh+u7zZfk3b76Wtzdz2bXnaTBvpfon/+3Eb4Ws1Hv/1s+egt/kLpjlgt/mld9mZ+8fb4+/rbz5mMkUY+g8nV4LefNQkXWgENZp3fftwELGMkbLdf/jk9TuME3OLmtx85Em/RErYfL3/7oaMQL+AWq17zD9brDcuMkyRhu/2nyN0JBovrzdPWdq//zsfZgw0TJWy/FJAE48+dfZ/bbDc8SRXxuxmj2r91b7S5yBvxI1XCdrsJunqNbjTNGrKfLmF7UUisI8af+EYPWaOuMkScF5LsB/xtz7LGvYdjvn+vFUs07+U6mHtulCVilw057I6moWVa0KTCJVhGRBxcHMjZ6AorucSdLQyEDS15owUc8uz4/wtfAFmGpioinKwV8QCHtPzQ8IbfuURkjN9xSRHf0YgT26cP8Vtw3kQiVEmGTBHhWvuuXdK5Q9ds8ZUl3fblsYGLiogN6qp+0Rm58XWWgONHrYB5IvoN6g8G5G3nBIzstZUX8RWO6JoRbHGe0m/rMWEQVxkiXsERXTOCX/l56k05Z7z9wn/PIcP4bm4qeAyvSsvBdTmZWLQGZH3mmO4NGvBePBbKziUZG0+m1kRm3Sf4r7cMCQdwyL/iujW4KkGJeOUbbPaeuIu12M8QEXMnYb8GIIyLp408Vjo6KfzK7zIkJHZELG60FmMzYwMqoOWiujAkzsqfYOMt8hUgjxwbDVMrWkvjwbWYl1uAAaH0d9L1C4vkBwsmvpz8IRIxM2L7RvcVCurIa+ISUyS0lmsMTNSshdhq9VDy4lZcJkONKEJF8rRojK54oI17ydnH1oO9q1Ny0KUrHjEqxFCatB2E63fuND748Yl2gaK7y+y6jOliMvDnSEDGVlz+tqz91/Y62rQRSHrJp5eqjrGmwJJ+s+0esSCe7f/WLYJ2icq0F/B2Yl9Okh8OualHeZ/0TB/2vx2rvlSSK5H40tx5EiGhqGyhZgKQV3uyyKmkI3XC3YFrJCmJWIhCh2fkQpR8sP0SWNAqm+o6xUd0kVB0BNd4cX/7SS4E8c4k8H8VI3B/J/1hC4TMER5RrkMcvCNiYN8GMI+2yiK49hn+RHiVd7WAqMAMmQhIk+3FQBKty1AJl3DnK3SVWCJqUwMz+OAtXqLrakaXbnYEOKQwItiUi0xKjoDA2OCESU09PBPpNwpCO3iFicWkMqZDkpz5FL+GuaiapcRp3j28WTnx8jBdEcRNE170mIBi6cB6yfpa99bkwaX1A5FgwC5G2AFFDUqPVJktReAOs5t1Shqo6NrwZICwknhSC0MW9rUwUbfFWpBSbCUdg4tzvBVo5lGMjhmHMHVB7o3zLtu3feC9/cO7xDkAdxkEK0nY1p9QPl5gYjKHdks7pDTguMm1XVdvO4MD43A5R8K7VuSRxALDRlKs80ByHxMQS8C94ozhhrkUGf3By+rA9kZEZDgkETPJv22C3ZuVxD6OdyZoq8GzHFJTHAvjTnEDTILEI8e5IFdAdsEPnsCTqrYeJ3V70x1fTm+Ey8LPHKVDlj48krWAgNAuKjdXd16s03+9mb3f480QEtrErEPmm48enFmhA6BVXOskbL+/Bd7FEo0eZUuZgEc7wPzIAXh6hIpw1IDhYYw/ZLswR0bPNgsPIBGfy4yX6yT5aAZLEAPmX2EU1LbMP+NyB7BcrKCuw4S6dQOSBxNukySBWDHCMWIJCUh3J4HR95fHMZDEh4gtMA1kO6FVSOatnGt7aj3EOz7zlzhSEC8gOBPk8qyiqzK8IQE53RX00gwaV7/ivcXavU71ED+o7G7IIH6gYfcQTvbZ/HWMfZ4POLQQuY51hIDVS8PHHiuInSYLcn9oF6T0FHy1DryjIF4gILlsUVQCBo2fd0977V79Y84jC/SJKRULTC5XVvFUhUGBo52h8hlhOQ9vOa7WirxFYapFJgDuodUuhGWfFu4DGy3SjB3mG69lkWBbHcIEuq+b5RgqYhA6KBCsJpObJ8f5f6E9LDNhCTR5ZMrZgmN1sZXd8q+W9Y2igkUY4opDD0JeaIcv7ouE23HYK4xiawIS+nH98PFxfb7Q7WTJ9WatFd8UWX9/XM3PRj47JiSop40Ze+rzAfaIO+Ago0rbZ4F18v0xm76OuprzhSIjXePdbAJWApJJHHuCQ05F2+CNfnjX4/f7w/x1FHXYT0Z89s/Z/KgWNamMjy5ylB63vkE0uDy77CQd1pSeYFmJyJzAhefnO3gYGgE4I1rolAvS0kFDYQGJQ/ZtNTCABZ9/PsIAsq39UmR52krHhMzpt1gtgBRXZI0dAV5pcyb7dnlUAhI6nlivBl5okXlK5tkLixU+K/5FBEwtb0ZZrpw64gNY/pNwpccqqUxC4m/PzfxAq6JEe4tgVGBjWXlYQolJPk8D9LJ9UaUWbJ8F4b4SkOQYsp4I8ackq+VA3xXFevw/5BVkPQmsGS9xvLWj3DawJiBJDS8zO0RA75NzgOiAYSjHsoNlQkhyf5ndZwMmZkqIqMmHPFdXEwEf89sz4I2rIuewQ7UCtpcjC/epRJctzJLeSvRHCbTwsXgKs0xl2ohhqvhUorUF23bZwdozYjug+Q1admBdWq4LvMAxT/lYwRBzn4UE9JyjusqfqgN4rM+gSt2zLd4ygc4OfL28hOdqd2qm+e0DY3uUwR1CdlZiV1BAnvvaYnPjmSvD/nnlbVgZMD1RvzelbIu3cIsbbwHR02ouM2um9YeTkGRRON21M8cD2A5oiRinBrpcjrhfza7m8/nN+dXs+g0/FksV8V27i+H6RAK22J3iwAouOBEnuecm2r4F98tVYPXFnXXUMM00RAsVdehA7YOKiP+gqWahvXUJEanl1RdCNNcNNbXgpIYvyhLYjqGLvAZlASibwXjBs0aqXjrNCphWjeGCZ981DeAKd0GTGESlyTD4Gadwv5lTdEBdJLdLPIJPtF6AWZyoxStv+6SFx2F76w+KZE80GHiYuA4etu6xZicTcItuMMfix8STQOKx2ok7Lb+q22wh+NK43GCfuod9d5phWH1nNTkR/4Xm7v3zVKLjS0jyFkm/0y97fDafrTbRTsTru+l7y2vwlonu+GILvRHyTjlKxDO7kxRARGWf13DQcda//DWJKDfi3W2lRHxSNMsWizg/6d8Z4+dYG2167oc2xjvAvwHfoYdhGg6hOOKZjr+QaUiLrov2WdYjVoMGAa5JiyBTSqCykcZVAxOODnp7go8sOPBo8Ol9dnU1I+m0QO6TEnG3eVnjoC/7e3p0CpiMBZ6U5zZOS8SZBm/t/PsAUjtfKGXA68qLd+f3gAnorDK8mRsq+eF15acj4kxAMQHxvnaQa9IwLb5sNg1MQMDKsOEIljzSvMlpiDgxMhNIO/HFwelGiXiwJ1ABRGjQADtx1rDrCH5Up3EiHqVBA0zFgqafE/Hg28lDpAa3GOLMdrBwlVf7NZrqj9Zgi9XHhIsMebVfqU9lABANegVkE+45fDtKxEsUvULET9E9sNlQODdOxMt8iMxFmgYNsPFXpO0pEX9qgoinatAA59IURJNX+5WvQEnXoAHeFFA8Ja/2K03EczRokBRKGfBqv+TvLEDkabBFK/I0oTvdFCpJxHM12GIbMKrjIXST8TlNGoBsDRrgAxSqnsLear8SKCJgcihl0PAmY4EpugcuCVDRzEaJeCENGuDCBNUzdmgtYTYRZ8Fo0grAll8V8jVGxAtqsJUeSu1Aj91k5TaKarDFwgXSBM0FJ+LpdRtlNdiiabRn3a95tV8qES+tQdLxt62mJzwjnkbEi2vQ891kJclkH5FNI+JEgxkCsoOhEU/Yo+2w4qvEijl6C74SOe08o9V+sUS8/BRtBT7QrrUWnIhH5TbKG5lW6Agi6qwaN0xMRpxoMPMUp1fAiIPoBYg402CegMEjCOrPs/BqPyURZxrMi8YCx2QN1BQzs9qvATfRUn6cXR8o0Go/xVtqxIpqvz6vD/fSq/1+UYMG+t0zusno+RDA/0DAGGvGq/18rpUImGlksIA4oa0MpQx4boOLyOxdnoD4SWaplQwV6LGbR0ZvCDPOdPRkivbYC42pfWbVfs/4cnbYP09AMpd2wURiJYMFtsmIK+iwG21kDR7KDXHyJSbYY8eWkFrwtc1Y0aM9wSm0mEQvsR3A82Oy15CbOBq7IU5sxCReyCajVCJctA0JaOkIL/6vmIJSXO0ngn64296QgLUqU2yJopqWwWo/8R0/lDZvxsi45BNXMsRVPqNNRicvAl3hSQRkRCqufh2kgJxpCl5CM44ehQ84QxV3CkFuMtZbv6P1fiINGuCd7LiGGJI91GIMsM2aVwUYJSAjG3GPIH5e86rS8ebty0UKmFgUXodQoj3NZbo9o8VkiwvIzzBhvhHVB1K4HZvfSlqQVXMUq0H8CAYxe4NCTXaQIux1ehvUVooGDTIqGX7gunQ7OylikJzzYikaNMgOpVzeaU8AsaOT4SlSBUwuCj/CzTDaDYfdUSOSJS7SpugeiUXhB7gOwdKhWKMxnz+vI12D5jnwBqh2Qrkz0ZJCdGRPruDI0WArvSh8D/d3FnkXEqa23cjSoEFyUXgLdAm2pBASJp5LzdSgAU7zqvZ3RXhk0TIhYVozg2wNGuBtE82kEt7Guq+wNEllRgU0aJBcFC7Yu53sEQF+3EPtUESDBnjjLEgj5XFH+78itIgPnQpp0GANBwql30QytDYRRZAdbUwLCphWFC7DoxrfE6yXfDOVotgU3SGlKFyy2hoXkm4oroqqpAYNcLVFXKsiR0lyuJgHKqtBA1y87nHTMhnq8DJZSxXhEktr0ABXPtHUCqgFcwg7oBLqELG8Bg1wKSoZE1zsfkYSfA1Jm8hoQoMG+qLwPsrXCwUhJqESkR0vy26c08NfCRWh1AWuVhTjQQOtELEpDbZog/2acoYLUjoEkh8w7RwUsTENGtBvWE/7nS1GiwfePw4MhyOzgIjNGJkjdI1qEaA7x1vqXhEb1aBBSiMjg2c4GvyQjlfExgWM/prtAYSlky1/KiITsGgP9ZjW30dQV05OaxKVsML7wv3VEtrD8z6UQ3KsGC5bZgVKd8GP+eTXHr4vz7HqYsBRWXln+Tb/vD4Pw7/lwqz/kzOzp+wQeRPfMYj56nI4xcRPtcz6P3nZXp8fDGlCQM85YPSYwdF8jdjv31arN98HkJtq4qh3i5rOvN7PMvnRjAYNFHX+BivdrnhyO/0m23CO6KG1CvfqB/CcMPOhOQ3uEGqcfh+TWUrSYuONVC987bbvIm+fIGLDGtzh4gE7qe+b+C3r6Il6qla4o/O3mpSfzw+LtOK0SItavh+OB53+63R+czOfLvo5hWn6z6O2T9AmrhGM2blrgcdTd08tBtpNrI5TdaRsAirK23CXv4YR/j7Jy+lbGBfG2Jsouf5nV6CNMT0dTr9U+e/hcrZ2pbt/OKkLPAG6f+Yv75stwf/cvL9ML0/8mZsc/AelxM5m6dkuUAAAAABJRU5ErkJggg==;" vertex="1" parent="1">
          <mxGeometry x="560" y="280" width="70" height="70" as="geometry" />
        </mxCell>
        <mxCell id="Fw73sAZrg3cBjoxB2AiI-25" value="Repair" style="text;html=1;align=center;verticalAlign=middle;whiteSpace=wrap;rounded=0;" vertex="1" parent="1">
          <mxGeometry x="560" y="345" width="60" height="30" as="geometry" />
        </mxCell>
        <mxCell id="Fw73sAZrg3cBjoxB2AiI-26" value="" style="shape=singleArrow;whiteSpace=wrap;html=1;fillColor=#d5e8d4;strokeColor=#82b366;" vertex="1" parent="1">
          <mxGeometry x="630" y="295" width="60" height="40" as="geometry" />
        </mxCell>
        <mxCell id="Fw73sAZrg3cBjoxB2AiI-28" value="Pass" style="text;html=1;align=center;verticalAlign=middle;whiteSpace=wrap;rounded=0;" vertex="1" parent="1">
          <mxGeometry x="640" y="330" width="60" height="30" as="geometry" />
        </mxCell>
        <mxCell id="Fw73sAZrg3cBjoxB2AiI-29" value="Passed Tests Tp" style="text;html=1;align=center;verticalAlign=middle;whiteSpace=wrap;rounded=0;" vertex="1" parent="1">
          <mxGeometry x="690" y="300" width="60" height="30" as="geometry" />
        </mxCell>
        <mxCell id="Fw73sAZrg3cBjoxB2AiI-30" value="" style="shape=singleArrow;direction=north;whiteSpace=wrap;html=1;fillColor=#fff2cc;strokeColor=#d6b656;" vertex="1" parent="1">
          <mxGeometry x="675" y="220" width="60" height="80" as="geometry" />
        </mxCell>
        <mxCell id="Fw73sAZrg3cBjoxB2AiI-31" value="Text" style="text;html=1;align=center;verticalAlign=middle;whiteSpace=wrap;rounded=0;" vertex="1" parent="1">
          <mxGeometry x="380" y="320" width="60" height="30" as="geometry" />
        </mxCell>
        <mxCell id="Fw73sAZrg3cBjoxB2AiI-32" value="Coverage Information &lt;br&gt;Extraction" style="text;html=1;align=center;verticalAlign=middle;resizable=0;points=[];autosize=1;strokeColor=none;fillColor=none;" vertex="1" parent="1">
          <mxGeometry x="565.26" y="242.5" width="140" height="40" as="geometry" />
        </mxCell>
        <mxCell id="Fw73sAZrg3cBjoxB2AiI-33" value="" style="shape=image;verticalLabelPosition=bottom;labelBackgroundColor=default;verticalAlign=top;aspect=fixed;imageAspect=0;image=https://user-images.githubusercontent.com/33158051/103466459-7524de80-4d13-11eb-96ba-f13e5409a18a.png;" vertex="1" parent="1">
          <mxGeometry x="730" y="240" width="55.26" height="20" as="geometry" />
        </mxCell>
        <mxCell id="Fw73sAZrg3cBjoxB2AiI-35" value="" style="shape=image;verticalLabelPosition=bottom;labelBackgroundColor=default;verticalAlign=top;aspect=fixed;imageAspect=0;image=data:image/png,iVBORw0KGgoAAAANSUhEUgAAAJQAAACUCAMAAABC4vDmAAAAilBMVEX///9TPGv6+vuKe5tZQXNWPmx3ZYtSO2pQOWlLM2RYQnBON2dpVX5aRHH49/m8tMZiTXhHLmGXiaVyYIbf2+Tv7fFIMGLPydby8PSPgJ7a1N+EdJVkT3lfSXXMxNPn5eu0qr+om7R9bI90YofDu8yila+torjk4Og/JlqThqKzp726sMU5HlScj6lYqi4lAAAGPklEQVR4nO2ZaXPqOBZAr+2WtXvBK/LuAIZk+P9/r68MScgLryp51dOhZnTyIViW5WP56koCAIfD4XA4HA6Hw+FwOBwOh8PhcDgcDofD4fifx39AfrpP7hM8IPDXAwLkAQHvAXFSX8VJfZVbqbfo/zGbKzdSxOOce4xz+dNWN1Jcn4INCU/bpvxhq3cpOlfgwxABRPtU3FRhFkq/0yqll4vs1ZL9uZQUOYzhMwzbxsA+fesrxkgbzk8JYV/XYlSrcM6U9ijZ5vO3O/4qRSQNYCx5smlY2RV5e1UgHkNHSx9+OdSonor1mqJlIoYg/TMpwrtxATjMjGFk9RCZLWeXEycf8n5XLVDMV6vb8flxqF4OGB2xgb6vjCEUpZqL1G9G9b3iixTrDPhRBVEjuxgKAxHsbV8RqXJ/EmmZJjH0HbN3JES+jk/i4Udv/UwpEThyKR6wFuoTx2u4IOwqRQiVUtr7s9cwoOsNsJitWvaQ0BspwnvY90UYFDk7QKUO/n4HDce2ysY3nRRCl1lRZ1jS6ZK3ql37kZREqZZybIt0WqYsUR3qsgAMFwje7FXKKwVWxYzj6USz9TG6jni01Eol3BaITnv4FPRVisisMHzGpgLYDTk9wcLn6MVjHkm3EOt1ELUVhJy21ZS9mMGMHRbSZpcPeTyjVRcf1CY2eY/vmG2geh2+VylKN1jVjBmTykyX7qxGQfW5HwZzaKVgT/1Jnsd2FV6lUCH2eAxVuANozuAHx6yo9EXqRaxSnZViCuoCTOXDgREe1GB2BpaMee3gY0wONVQdoxvof5FiE+BVBSyKt9GgLt3Zc3GAqN8NsNNENmBiqNW7FFNLkUk9QjFgWEO+5W0MW+zrz1I+VE+JDqJC2JKNEN0EcUqSHIZ9mDQDvuPPUp7y66DrsNGYkdHf4lm2izbH2R9mIVQP25I1tQ99Jt5enydSVBaS7CM7kM0s0w0UysbU557KNWeyK3zNs3ppS1omYIiHUkrytM2je1L0jCWUlmHtY//CKHFU+kWCd3nG3FqeYCppE0UbzenN6NNm2DIdR5Fv91xFULbP/pnd6ykwdgwlKFU++VXCiESpjqGUxmhSv5GaMAdi3HcD2GcxLWNb2HF+xjGOaTuAA2dNZBgj76NvjSlGYsjnHuC0x15Ks6IXd2MqxzClq1RYR8YC+SqFA0/+XurZpnWUEmtJKXsIKN/DYBtYYLxI3eYpO/p6r4FKbmCART5F1bGpY3Jfir1L+cPK7jtSXoodw7qi1qTEx7fXL8O0StFbKU8ce5jGaN5CIUbYq7jeVH5WXmNKe28p4UNPPflGCa11pwn9ReqaEsiNFH+VkmpYktnvpSjPMNkGtMYs/EkKB6SBojYwnITe4RyBsTXZDiKpTZ42E6aZHVhWysOsuEplkVFUCxxJ3kcpTJ4pEeuJN6k41ZqqAmzUxJA9w5YRK+XZLIvTwWcpvLmaaljGkB25nvoITCDsVGJvA4ckPaYKpxlNKUrJND3OUWFPFfMxTVPS0Q9SrI2KDcNrvOQ1JYQwKKx68A2uG8oNTEvUMZFu8YmPZYq+d3rKo4Id95jNjskYlv/JikVcZ3Yit2g4jjHmIZusMXnuxmnK4QV74QD5YT+N1VSSWylCMcHsXsaX3ojrhMx6WA5T7MOMccrDovZ3aEcTA9W0n+KquRNT6+vvaojDGNdTQQ6bVF/LKWl2Nnn5LyEGE0pdvhKJE5TqpvWgOHOSGH+Vqgorpc/LWmtIGGZkO810z7ZqHti1ImExzvzrdJ+tbdvMyJqiYr9KYShnBnCaiHyMJ+99OUGlXbA9KcFtHXx9KpvDTEvbpodnQpVgUBOV4VxKSatsKDLZZnaR1+JBktm5kxG76kv45U6JUpfUjW3PWM9OzVq13mcpXHtmmyehDydcZXo34FYCWRuxyXM9ulSg62dp52a5VsB/lzPy7YxclzOXqvK9RXrb9trC29mPWyxM+faPyXsLX/IqRe3y55/aWdxv59Nm1C6OftsGSi3sv78v/N4OmbVLTB9NyhOt96291p/xTSn6/U3cH/DtLzj+jc3zw3/r8jA4qa/ymN+jhw/Iv/mLy9f56V+s7vHTfeJwOBwOh8PhcDgcDofD4XA4HA6Hw+FwOBz/p/wNgXKZ7I6SYK4AAAAASUVORK5CYII=;clipPath=inset(34.46% 0% 34.46% 0.68%);" vertex="1" parent="1">
          <mxGeometry x="740" y="266.85" width="70" height="21.9" as="geometry" />
        </mxCell>
        <mxCell id="Fw73sAZrg3cBjoxB2AiI-37" value="Quality test case" style="whiteSpace=wrap;html=1;aspect=fixed;fillColor=#f8cecc;strokeColor=#b85450;" vertex="1" parent="1">
          <mxGeometry x="675" y="50" width="70" height="70" as="geometry" />
        </mxCell>
        <mxCell id="Fw73sAZrg3cBjoxB2AiI-40" value="" style="edgeStyle=orthogonalEdgeStyle;rounded=0;orthogonalLoop=1;jettySize=auto;html=1;" edge="1" parent="1" source="Fw73sAZrg3cBjoxB2AiI-38" target="Fw73sAZrg3cBjoxB2AiI-37">
          <mxGeometry relative="1" as="geometry">
            <Array as="points">
              <mxPoint x="710" y="180" />
              <mxPoint x="710" y="180" />
            </Array>
          </mxGeometry>
        </mxCell>
        <mxCell id="Fw73sAZrg3cBjoxB2AiI-47" value="" style="edgeStyle=orthogonalEdgeStyle;rounded=0;orthogonalLoop=1;jettySize=auto;html=1;" edge="1" parent="1" source="Fw73sAZrg3cBjoxB2AiI-38" target="Fw73sAZrg3cBjoxB2AiI-35">
          <mxGeometry relative="1" as="geometry" />
        </mxCell>
        <mxCell id="Fw73sAZrg3cBjoxB2AiI-38" value="Testing feedback" style="rounded=0;whiteSpace=wrap;html=1;" vertex="1" parent="1">
          <mxGeometry x="650" y="200" width="120" height="20" as="geometry" />
        </mxCell>
        <mxCell id="Fw73sAZrg3cBjoxB2AiI-41" value="Conditional &lt;br&gt;Judgement" style="text;html=1;align=center;verticalAlign=middle;resizable=0;points=[];autosize=1;strokeColor=none;fillColor=none;" vertex="1" parent="1">
          <mxGeometry x="705.26" y="130" width="80" height="40" as="geometry" />
        </mxCell>
        <mxCell id="Fw73sAZrg3cBjoxB2AiI-43" value="" style="endArrow=classic;html=1;rounded=0;" edge="1" parent="1" target="Fw73sAZrg3cBjoxB2AiI-6">
          <mxGeometry width="50" height="50" relative="1" as="geometry">
            <mxPoint x="120" y="110" as="sourcePoint" />
            <mxPoint x="120" y="190" as="targetPoint" />
          </mxGeometry>
        </mxCell>
        <mxCell id="Fw73sAZrg3cBjoxB2AiI-48" style="edgeStyle=orthogonalEdgeStyle;rounded=0;orthogonalLoop=1;jettySize=auto;html=1;exitX=0.5;exitY=1;exitDx=0;exitDy=0;" edge="1" parent="1" source="Fw73sAZrg3cBjoxB2AiI-6">
          <mxGeometry relative="1" as="geometry">
            <mxPoint x="120.27272727272714" y="230" as="targetPoint" />
          </mxGeometry>
        </mxCell>
        <mxCell id="Fw73sAZrg3cBjoxB2AiI-6" value="LLM" style="rounded=0;whiteSpace=wrap;html=1;fillColor=#ffe6cc;strokeColor=#d79b00;" vertex="1" parent="1">
          <mxGeometry x="80" y="170" width="80" height="70" as="geometry" />
        </mxCell>
        <mxCell id="Fw73sAZrg3cBjoxB2AiI-45" value="" style="endArrow=none;html=1;rounded=0;" edge="1" parent="1">
          <mxGeometry width="50" height="50" relative="1" as="geometry">
            <mxPoint x="330" y="180" as="sourcePoint" />
            <mxPoint x="330" y="100" as="targetPoint" />
          </mxGeometry>
        </mxCell>
        <mxCell id="Fw73sAZrg3cBjoxB2AiI-46" value="" style="shape=singleArrow;direction=west;whiteSpace=wrap;html=1;fillColor=#fff2cc;strokeColor=#d6b656;" vertex="1" parent="1">
          <mxGeometry x="160" y="190" width="450" height="40" as="geometry" />
        </mxCell>
        <mxCell id="Fw73sAZrg3cBjoxB2AiI-49" value="Prompt injection with Tp" style="rounded=1;whiteSpace=wrap;html=1;" vertex="1" parent="1">
          <mxGeometry x="475" y="190" width="85" height="40" as="geometry" />
        </mxCell>
        <mxCell id="Fw73sAZrg3cBjoxB2AiI-50" value="Coverage Guidance : &quot;hey there are some branches uncovered, please provide more tests. Don&#39;t need to output previous code." style="rounded=1;whiteSpace=wrap;html=1;" vertex="1" parent="1">
          <mxGeometry x="310" y="190" width="150" height="70" as="geometry" />
        </mxCell>
      </root>
    </mxGraphModel>
  </diagram>
</mxfile>
